<svg width="80" height="60" viewBox="0 0 80 60" fill="none" xmlns="http://www.w3.org/2000/svg">
<g clip-path="url(#clip0_2487_2638)">
<path d="M26.832 6.68239L32.5388 1.82935C33.9294 0.648168 35.694 0 37.5142 0H69.551C72.4765 0 74.9658 2.14192 75.4086 5.04387L75.6579 6.68239H26.832Z" fill="#1A4D7A"/>
<path d="M0 9.15992V56.9072C0 58.6148 1.38078 60 3.08298 60H76.9203C78.6225 60 80.0033 58.6148 80.0033 56.9072V9.15992C80.0033 7.45231 78.6225 6.06714 76.9203 6.06714H3.08298C1.38078 6.06714 0 7.45231 0 9.15992Z" fill="#1A4D7A"/>
<path d="M54.6281 43.8254L55.3234 46.9116C55.6514 48.3691 54.7232 49.8103 53.2637 50.1097L43.8344 52.0443C42.3749 52.3437 40.9581 51.383 40.6891 49.9122L40.1217 46.7997C39.8528 45.3323 38.4359 44.3716 36.9764 44.6677L33.959 45.2862C31.8961 45.7107 30.1873 43.6707 30.9548 41.7032L38.5409 22.2746C39.82 19.0009 44.0378 18.1355 46.491 20.646L61.0663 35.5341C62.5422 37.041 61.7649 39.5876 59.7019 40.012L56.6845 40.6306C55.2283 40.9267 54.3001 42.3678 54.6281 43.8254Z" fill="#F4AF40"/>
<path d="M45.1891 33.5106C45.622 35.6328 44.9661 37.5575 43.7296 37.8109C42.4899 38.0642 41.1353 36.5507 40.7057 34.4319C40.2727 32.3097 40.9287 30.3849 42.1652 30.1316C43.4016 29.8782 44.7562 31.3917 45.1891 33.5106Z" fill="white"/>
<path d="M43.9492 33.764C44.1329 34.6655 43.5524 35.544 42.657 35.7249C41.7583 35.9092 40.8826 35.3268 40.699 34.4286C40.5153 33.5304 41.0958 32.6486 41.9912 32.4676C42.8899 32.2834 43.7688 32.8657 43.9492 33.764Z" fill="#413D3C"/>
<path d="M49.6754 32.5926C50.1084 34.7148 49.4524 36.6396 48.2159 36.8929C46.9762 37.1463 45.6216 35.6328 45.192 33.5139C44.7591 31.3917 45.415 29.467 46.6515 29.2136C47.888 28.957 49.2425 30.4705 49.6754 32.5926Z" fill="white"/>
<path d="M48.4365 32.846C48.6202 33.7475 48.0397 34.626 47.1443 34.8102C46.2456 34.9945 45.3699 34.4121 45.1863 33.5139C45.0026 32.6124 45.5831 31.7339 46.4785 31.5529C47.3772 31.3654 48.2529 31.9444 48.4365 32.846Z" fill="#413D3C"/>
<path d="M45.5008 37.9063C45.7402 38.9262 45.9272 39.9561 46.0583 40.9925C46.078 41.157 46.1863 41.3018 46.3666 41.3018C46.5175 41.3018 46.6946 41.1603 46.6749 40.9925C46.5372 39.9001 46.347 38.8144 46.0944 37.7418C46.0059 37.3535 45.409 37.518 45.5008 37.9063Z" fill="#413D3C"/>
<path d="M44.6183 43.9701C46.1336 44.8717 48.2425 44.5361 49.3838 43.1805C49.6397 42.8778 49.2035 42.4369 48.9476 42.7429C47.9801 43.8912 46.2222 44.207 44.9299 43.4338C44.5888 43.2298 44.2772 43.7661 44.6183 43.9701Z" fill="#413D3C"/>
</g>
<defs>
<clipPath id="clip0_2487_2638">
<rect width="80" height="60" fill="white"/>
</clipPath>
</defs>
</svg>
