<svg width="103" height="79" viewBox="0 0 103 79" fill="none" xmlns="http://www.w3.org/2000/svg">
<g clip-path="url(#clip0_2487_2729)">
<path d="M51.5113 0.0157173C60.5924 0.0157173 69.6735 -0.0273494 78.7585 0.0274628C91.8153 0.105766 102.726 10.7941 102.898 23.8199C103.035 34.2577 103.043 44.6994 102.894 55.1333C102.718 67.7361 92.1828 78.6359 79.5951 78.8043C60.8856 79.0588 42.1722 79.0588 23.4627 78.8121C10.5388 78.6398 0.0308362 67.4621 0.0112901 54.5068C-0.00434678 44.4958 -0.00043756 34.4847 0.0112901 24.4737C0.0230177 11.033 10.9923 0.0470386 24.4478 0.0196325C33.4703 5.6723e-05 42.4888 0.0157173 51.5113 0.0157173ZM44.6623 56.9068C48.294 56.9068 51.8123 56.989 55.3267 56.8912C62.9418 56.6758 69.525 51.3512 71.3936 44.0025C73.3091 36.458 70.1387 28.6903 63.5986 24.7282C57.6449 21.1184 51.1243 22.477 44.6623 22.2029C44.6623 33.8661 44.6623 45.2945 44.6623 56.9068ZM40.5342 56.8207C40.5342 45.2279 40.5342 33.7996 40.5342 22.1951C37.9268 22.1951 35.4405 22.2577 32.9621 22.1677C31.7776 22.1246 31.0817 22.567 30.4133 23.4988C22.8137 34.0893 15.179 44.6524 7.55608 55.2272C7.22379 55.6892 6.93451 56.1825 6.4615 56.9186C9.88988 56.9186 12.9821 56.8559 16.0703 56.9499C17.3174 56.9851 18.1931 56.668 18.67 55.5052C19.8427 52.6511 21.899 51.5196 24.9638 52.0794C25.9646 52.2635 27.0279 52.1068 28.0638 52.1068C29.8034 52.1068 31.5391 52.1068 33.3999 52.1068C33.3999 53.8373 33.3999 55.282 33.3999 56.8207C35.8197 56.8207 38.1066 56.8207 40.5342 56.8207ZM80.1463 55.6461C84.6263 53.5555 87.9178 44.163 86.9757 36.7947C86.315 31.6423 84.7162 26.8972 80.287 23.5693C82.9883 28.6159 84.6614 33.8622 84.6654 39.6371C84.6693 45.4158 82.914 50.6465 80.1463 55.6461ZM87.1555 55.5248C87.3705 55.6422 87.5855 55.7597 87.7966 55.8771C88.1915 55.5444 88.6293 55.2507 88.9811 54.8749C96.0724 47.3578 96.092 31.8851 89.0085 24.3327C88.6527 23.953 88.1406 23.7102 87.7028 23.4048C87.5073 23.5262 87.3158 23.6476 87.1203 23.765C90.2829 28.5924 91.8661 33.8309 91.9013 39.547C91.9404 45.3454 90.1773 50.5956 87.1555 55.5248ZM72.5976 23.5262C79.1885 34.3046 79.0361 45.0087 73.0472 55.7949C78.6413 50.8031 80.1932 44.4214 79.7827 37.3115C79.4465 31.4975 75.8462 24.1605 72.5976 23.5262Z" fill="#1A4D7A"/>
<path d="M44.6621 56.9068C44.6621 45.2905 44.6621 33.8661 44.6621 22.1989C51.124 22.4769 57.6485 21.1183 63.5984 24.7242C70.1385 28.6863 73.3088 36.454 71.3933 43.9985C69.5247 51.3473 62.9416 56.6758 55.3265 56.8872C51.8121 56.989 48.2938 56.9068 44.6621 56.9068ZM51.6831 47.9841C55.776 48.4266 59.3842 47.8314 61.7258 44.1669C63.6374 41.1718 63.6374 38.0044 61.718 35.0132C59.3647 31.3408 55.7565 30.7692 51.6831 31.2938C51.6831 36.8181 51.6831 42.2915 51.6831 47.9841Z" fill="#FFB53C"/>
<path d="M40.5346 56.8207C38.107 56.8207 35.8201 56.8207 33.4042 56.8207C33.4042 55.282 33.4042 53.8374 33.4042 52.1069C31.5434 52.1069 29.8038 52.1069 28.0681 52.1069C27.0322 52.1069 25.9689 52.2595 24.9681 52.0795C21.9033 51.5196 19.851 52.655 18.6743 55.5052C18.1935 56.6719 17.3178 56.9891 16.0747 56.9499C12.9864 56.8599 9.8942 56.9186 6.46582 56.9186C6.93884 56.1864 7.22421 55.6892 7.5604 55.2272C15.1834 44.6524 22.8181 34.0893 30.4176 23.4988C31.0861 22.567 31.7819 22.1207 32.9664 22.1677C35.4448 22.2616 37.9311 22.1951 40.5385 22.1951C40.5346 33.7996 40.5346 45.2279 40.5346 56.8207ZM33.1814 45.177C33.1814 41.2227 33.1814 37.3741 33.1814 33.1066C30.4645 37.3154 27.9939 41.1523 25.3942 45.177C28.2401 45.177 30.699 45.177 33.1814 45.177Z" fill="#FFB53C"/>
<path d="M80.1465 55.6462C82.9142 50.6466 84.6694 45.4159 84.6655 39.6371C84.6616 33.8623 82.9885 28.616 80.2872 23.5693C84.7164 26.8972 86.3152 31.6424 86.9759 36.7947C87.9219 44.1631 84.6303 53.5555 80.1465 55.6462Z" fill="#FFB53C"/>
<path d="M87.1553 55.5248C90.1771 50.5917 91.9402 45.3454 91.905 39.551C91.8698 33.8349 90.2866 28.6003 87.124 23.769C87.3195 23.6476 87.511 23.5263 87.7065 23.4088C88.1443 23.7142 88.6525 23.953 89.0122 24.3367C96.0957 31.889 96.0761 47.3617 88.9848 54.8788C88.633 55.2508 88.1991 55.5483 87.8003 55.8811C87.5853 55.7597 87.3703 55.6423 87.1553 55.5248Z" fill="#FFB53C"/>
<path d="M72.5977 23.5262C75.8462 24.1566 79.4466 31.4975 79.7789 37.3076C80.1893 44.4214 78.6413 50.8031 73.0433 55.791C79.0361 45.0087 79.1886 34.3086 72.5977 23.5262Z" fill="#FFB53C"/>
<path d="M51.6836 47.9842C51.6836 42.2955 51.6836 36.8182 51.6836 31.2939C55.7609 30.7693 59.3691 31.3409 61.7185 35.0133C63.6341 38.0045 63.638 41.1719 61.7264 44.1669C59.3847 47.8315 55.7765 48.4266 51.6836 47.9842Z" fill="#1A4D7A"/>
<path d="M33.1807 45.177C30.6984 45.177 28.2356 45.177 25.3936 45.177C27.9893 41.1522 30.4638 37.3154 33.1807 33.1066C33.1807 37.3741 33.1807 41.2227 33.1807 45.177Z" fill="#1A4D7A"/>
</g>
<defs>
<clipPath id="clip0_2487_2729">
<rect width="103" height="79" fill="white"/>
</clipPath>
</defs>
</svg>
