<svg width="99" height="99" viewBox="0 0 99 99" fill="none" xmlns="http://www.w3.org/2000/svg">
<path d="M49.5001 94.2031C74.189 94.2031 94.2033 74.1888 94.2033 49.4999C94.2033 24.8111 74.189 4.79675 49.5001 4.79675C24.8112 4.79675 4.79688 24.8111 4.79688 49.4999C4.79688 74.1888 24.8112 94.2031 49.5001 94.2031Z" fill="#FFB53C"/>
<path d="M49.5 0C36.3703 0 23.7831 5.2137 14.5009 14.4959C5.2137 23.7781 0 36.3703 0 49.5C0 62.6297 5.2137 75.2169 14.4959 84.4991C23.7781 93.7813 36.3703 98.995 49.495 98.995C62.6196 98.995 75.2119 93.7813 84.4941 84.4991C93.7763 75.2169 98.99 62.6247 98.99 49.5C98.99 36.3753 93.7763 23.7831 84.4941 14.5009C75.2169 5.2137 62.6247 0 49.5 0ZM55.0301 74.4032C55.0301 74.9406 54.8192 75.453 54.4374 75.8297C54.0557 76.2064 53.5484 76.4224 53.011 76.4224H25.8174C25.2799 76.4274 24.7575 76.2215 24.3758 75.8397C23.9941 75.463 23.7781 74.9457 23.7781 74.4032V61.6352C23.763 57.7877 25.31 54.1009 28.0676 51.4187C29.474 50.0826 31.1215 49.0279 32.9196 48.3046C31.2169 46.5918 30.2626 44.2763 30.2626 41.8603C30.2676 39.4443 31.2269 37.1288 32.9347 35.421C34.6425 33.7132 36.958 32.7539 39.374 32.7539C41.79 32.7539 44.1055 33.7132 45.8132 35.421C47.521 37.1288 48.4854 39.4443 48.4904 41.8603C48.4954 44.2763 47.5411 46.5918 45.8333 48.3046C47.6817 49.0831 49.3644 50.2082 50.7858 51.6247C53.5283 54.3119 55.0603 57.9986 55.0251 61.8411L55.0301 74.4032ZM79.0041 29.8758L74.1269 34.5671L75.2772 41.2776C75.3626 41.7447 75.232 42.2269 74.9205 42.5936C74.6142 42.9553 74.1571 43.1612 73.6799 43.1562C73.4187 43.1662 73.1575 43.1009 72.9315 42.9703L66.9242 39.826L60.8014 43.0155C60.2589 43.2968 59.611 43.2516 59.1137 42.9C58.6164 42.5434 58.3653 41.9306 58.4808 41.3279L59.6059 34.6174L54.7489 29.921C54.2968 29.4941 54.1411 28.8411 54.3521 28.2534C54.5479 27.6808 55.0452 27.2639 55.6429 27.1735L62.3735 26.189L65.4927 20.0461C65.789 19.5388 66.3365 19.2324 66.9242 19.2475C67.5219 19.2224 68.0744 19.5438 68.3557 20.0662L71.3794 26.1639L78.11 27.1484C78.7078 27.2438 79.2 27.6557 79.4009 28.2283C79.5817 28.816 79.426 29.4438 79.0041 29.8758Z" fill="#1A4D7A"/>
</svg>
