<svg width="316" height="56" viewBox="0 0 316 56" fill="none" xmlns="http://www.w3.org/2000/svg">
<g clip-path="url(#clip0_2487_2657)">
<path d="M63.2 17.7708H0V41.5545H63.2V17.7708Z" fill="#1A4D7A"/>
<path d="M63.7002 41.0545V18.2708H125.9V41.0545H63.7002Z" fill="white" stroke="#A8A8A8"/>
<path d="M189.6 17.7708H126.4V41.5545H189.6V17.7708Z" fill="#EAA942"/>
<path d="M252.8 17.7708H189.6V41.5545H252.8V17.7708Z" fill="#AAD0AA"/>
<path d="M316 17.7708H252.8V41.5545H316V17.7708Z" fill="#E7989F"/>
<path d="M2.39098 54.0914H1.60547V53.4726H2.47407L2.64779 52.2387H1.80185V51.6198H2.72709L2.96124 50.0094H3.59569L3.37665 51.6198H4.62668L4.86083 50.0094H5.50283L5.27624 51.6198H6.09197V52.2387H5.19316L5.01944 53.4726H5.88048V54.0914H4.93636L4.69088 55.8957H4.03754L4.28302 54.0914H3.04432L2.79129 55.8957H2.14929L2.39098 54.0914ZM4.37743 53.4726L4.55115 52.2387H3.28979L3.11608 53.4726H4.37743Z" fill="#1A4D7A"/>
<path d="M8.09375 55.1315H9.55526V51.0085H8.35811V50.4195C8.98501 50.3151 9.42686 50.1771 9.80829 49.9684H10.5976V55.1315H11.9043V55.8957H8.09375V55.1315Z" fill="#1A4D7A"/>
<path d="M14.2646 49.9684H18.2073V50.7512H15.3145V52.4027H17.7617V53.193H15.3145V55.1091H18.3055V55.8994H14.2646V49.9684Z" fill="#1A4D7A"/>
<path d="M19.9746 55.2098L20.4731 54.6058C20.8545 54.9451 21.3342 55.2433 22.0328 55.2433C22.7843 55.2433 23.3546 54.7699 23.3546 53.9796C23.3546 53.1893 22.8485 52.7382 22.0857 52.7382C21.6589 52.7382 21.4059 52.85 21.0169 53.0774L20.5109 52.7792L20.711 49.9684H24.091V50.7512H21.6174L21.4626 52.2722C21.742 52.1417 22.0139 52.0634 22.3765 52.0634C23.4905 52.0634 24.4082 52.6524 24.4082 53.9497C24.4082 55.262 23.3282 56.0038 22.1612 56.0038C21.1076 56.0001 20.4467 55.6236 19.9746 55.2098Z" fill="#1A4D7A"/>
<path d="M26.2023 55.3551C28.1699 53.8081 29.1857 52.6561 29.1857 51.6832C29.1857 51.0382 28.7968 50.5946 28.0528 50.5946C27.5278 50.5946 27.0935 50.8929 26.7386 51.2545L26.1494 50.74C26.7197 50.192 27.3088 49.8528 28.1812 49.8528C29.4048 49.8528 30.1941 50.5611 30.1941 51.6347C30.1941 52.7792 29.1706 53.9609 27.7544 55.1613C28.0981 55.1277 28.5173 55.1054 28.8421 55.1054H30.5113V55.8957H26.2061V55.3551H26.2023Z" fill="#1A4D7A"/>
<path d="M32.293 54.4232C32.293 53.6403 32.8746 53.1184 33.4901 52.8277V52.7867C32.9916 52.4735 32.5913 52.0299 32.5913 51.3999C32.5913 50.4754 33.3995 49.8715 34.4947 49.8715C35.6541 49.8715 36.3792 50.5164 36.3792 51.4409C36.3792 52.0448 35.9184 52.5593 35.4992 52.8351V52.8761C36.0959 53.1818 36.6246 53.6403 36.6246 54.4456C36.6246 55.3253 35.756 56.0001 34.4682 56.0001C33.2182 56.0001 32.293 55.3402 32.293 54.4232ZM35.639 54.4232C35.639 53.7 34.9025 53.4241 34 53.0961C33.5392 53.3794 33.222 53.8193 33.222 54.3374C33.222 54.9264 33.7734 55.3365 34.4909 55.3365C35.1669 55.3328 35.639 54.9786 35.639 54.4232ZM35.503 51.4968C35.503 50.9488 35.1329 50.5388 34.4796 50.5388C33.9358 50.5388 33.5279 50.8705 33.5279 51.3999C33.5279 52.0448 34.1623 52.343 34.9063 52.6003C35.3029 52.2722 35.503 51.892 35.503 51.4968Z" fill="#1A4D7A"/>
<path d="M38.1924 55.2098L38.6909 54.6058C39.0723 54.9451 39.5519 55.2433 40.2506 55.2433C41.0021 55.2433 41.5724 54.7699 41.5724 53.9796C41.5724 53.1893 41.0663 52.7382 40.3035 52.7382C39.8767 52.7382 39.6237 52.85 39.2347 53.0774L38.7287 52.7792L38.9288 49.9684H42.3088V50.7512H39.8352L39.6803 52.2722C39.9598 52.1417 40.2317 52.0634 40.5943 52.0634C41.7083 52.0634 42.626 52.6524 42.626 53.9497C42.626 55.262 41.5459 56.0038 40.379 56.0038C39.3253 56.0001 38.6644 55.6236 38.1924 55.2098Z" fill="#1A4D7A"/>
<path d="M64.8616 54.0913H64.0723V53.4725H64.9409L65.1146 52.2385H64.2724V51.6197H65.1977L65.4318 50.0093H66.0663L65.8472 51.6197H67.0973L67.3314 50.0093H67.9734L67.7468 51.6197H68.5625V52.2385H67.6637L67.49 53.4725H68.3511V54.0913H67.4069L67.1615 55.8956H66.5081L66.7536 54.0913H65.5036L65.2505 55.8956H64.6085L64.8616 54.0913ZM66.8442 53.4687L67.018 52.2348H65.7566L65.5829 53.4687H66.8442Z" fill="#1A4D7A"/>
<path d="M70.6582 49.9683H74.6084V50.7511H71.7081V52.5629H74.1741V53.3457H71.7081V55.8993H70.6582V49.9683Z" fill="#1A4D7A"/>
<path d="M76.6973 49.9683H80.6475V50.7511H77.7471V52.5629H80.2132V53.3457H77.7471V55.8993H76.6973V49.9683Z" fill="#1A4D7A"/>
<path d="M82.7323 49.9683H86.6825V50.7511H83.7822V52.5629H86.2482V53.3457H83.7822V55.8993H82.7285V49.9683H82.7323Z" fill="#1A4D7A"/>
<path d="M88.7705 49.9683H92.7208V50.7511H89.8204V52.5629H92.2865V53.3457H89.8204V55.8993H88.7705V49.9683Z" fill="#1A4D7A"/>
<path d="M94.8057 49.9683H98.7559V50.7511H95.8555V52.5629H98.3216V53.3457H95.8555V55.8993H94.8057V49.9683Z" fill="#1A4D7A"/>
<path d="M100.841 49.9683H104.791V50.7511H101.891V52.5629H104.357V53.3457H101.891V55.8993H100.841V49.9683Z" fill="#1A4D7A"/>
<path d="M127.552 54.0913H126.763V53.4725H127.631L127.805 52.2385H126.963V51.6197H127.888L128.122 50.0093H128.757L128.538 51.6197H129.788L130.022 50.0093H130.668L130.441 51.6197H131.257V52.2385H130.358L130.184 53.4725H131.045V54.0913H130.101L129.856 55.8956H129.202L129.448 54.0913H128.198L127.945 55.8956H127.303L127.552 54.0913ZM129.538 53.4725L129.712 52.2385H128.451L128.277 53.4725H129.538Z" fill="#1A4D7A"/>
<path d="M133.352 49.9683H137.303V50.7511H134.402V52.5629H136.868V53.3457H134.402V55.8993H133.349V49.9683H133.352Z" fill="#1A4D7A"/>
<path d="M139.388 49.9683H143.338V50.7511H140.438V52.5629H142.904V53.3457H140.438V55.8993H139.388V49.9683Z" fill="#1A4D7A"/>
<path d="M145.426 49.9683H147.492C148.859 49.9683 149.848 50.356 149.848 51.4259C149.848 51.9888 149.493 52.5293 148.896 52.7082V52.7493C149.659 52.8946 150.211 53.3532 150.211 54.1584C150.211 55.3327 149.131 55.8993 147.654 55.8993H145.426V49.9683ZM147.374 52.4398C148.39 52.4398 148.817 52.1006 148.817 51.5452C148.817 50.9263 148.345 50.6915 147.405 50.6915H146.479V52.4398H147.374ZM147.537 55.1612C148.579 55.1612 149.176 54.8294 149.176 54.1062C149.176 53.4389 148.594 53.1481 147.537 53.1481H146.476V55.1612H147.537Z" fill="#1A4D7A"/>
<path d="M151.74 55.2096L152.239 54.6057C152.62 54.945 153.1 55.2432 153.798 55.2432C154.55 55.2432 155.12 54.7698 155.12 53.9794C155.12 53.1891 154.614 52.7381 153.851 52.7381C153.425 52.7381 153.172 52.8499 152.783 53.0773L152.277 52.7791L152.477 49.9683H155.857V50.7511H153.383L153.228 52.2721C153.508 52.1416 153.78 52.0633 154.142 52.0633C155.256 52.0633 156.174 52.6523 156.174 53.9496C156.174 55.2618 155.094 56.0037 153.927 56.0037C152.877 55.9999 152.212 55.6234 151.74 55.2096Z" fill="#1A4D7A"/>
<path d="M157.824 55.1873L158.33 54.5908C158.719 54.945 159.218 55.2432 159.909 55.2432C160.66 55.2432 161.178 54.8742 161.178 54.2591C161.178 53.5992 160.706 53.1705 159.203 53.1705V52.4846C160.517 52.4846 160.951 52.041 160.951 51.4445C160.951 50.9226 160.562 50.5908 159.928 50.5834C159.41 50.5908 158.976 50.8182 158.595 51.1463L158.051 50.5647C158.576 50.1472 159.191 49.849 159.962 49.849C161.159 49.849 162.001 50.397 162.001 51.3812C162.001 52.0671 161.555 52.5405 160.849 52.7754V52.8164C161.62 52.9841 162.228 53.5023 162.228 54.3001C162.228 55.37 161.223 56 159.999 56C158.946 56 158.266 55.6309 157.824 55.1873Z" fill="#1A4D7A"/>
<path d="M164.158 52.9469C164.158 51.0122 165.48 49.8528 167.168 49.8528C168.003 49.8528 168.656 50.2069 169.064 50.6021L168.494 51.1985C168.15 50.8854 167.731 50.6655 167.187 50.6655C166.035 50.6655 165.238 51.5191 165.238 52.9134C165.238 54.3225 165.982 55.1836 167.161 55.1836C167.769 55.1836 168.241 54.9413 168.637 54.5536L169.2 55.1426C168.664 55.6906 167.984 55.9963 167.123 55.9963C165.446 56 164.158 54.8891 164.158 52.9469Z" fill="#1A4D7A"/>
<path d="M190.639 54.0913H189.85V53.4725H190.718L190.892 52.2385H190.05V51.6197H190.975L191.209 50.0093H191.844L191.625 51.6197H192.875L193.109 50.0093H193.755L193.528 51.6197H194.344V52.2385H193.445L193.271 53.4725H194.132V54.0913H193.188L192.943 55.8956H192.289L192.535 54.0913H191.285L191.032 55.8956H190.39L190.639 54.0913ZM192.622 53.4725L192.795 52.2385H191.534L191.36 53.4725H192.622Z" fill="#1A4D7A"/>
<path d="M196.439 49.9683H198.505C199.872 49.9683 200.862 50.356 200.862 51.4259C200.862 51.9888 200.507 52.5293 199.91 52.7082V52.7493C200.673 52.8946 201.224 53.3532 201.224 54.1584C201.224 55.3327 200.144 55.8993 198.667 55.8993H196.436V49.9683H196.439ZM198.388 52.4398C199.404 52.4398 199.831 52.1006 199.831 51.5452C199.831 50.9263 199.359 50.6915 198.414 50.6915H197.489V52.4398H198.388ZM198.55 55.1612C199.593 55.1612 200.189 54.8294 200.189 54.1062C200.189 53.4389 199.608 53.1481 198.55 53.1481H197.489V55.1612H198.55Z" fill="#1A4D7A"/>
<path d="M202.766 55.1873L203.272 54.5908C203.661 54.945 204.159 55.2432 204.85 55.2432C205.602 55.2432 206.119 54.8742 206.119 54.2591C206.119 53.5992 205.647 53.1705 204.144 53.1705V52.4846C205.458 52.4846 205.893 52.041 205.893 51.4445C205.893 50.9226 205.504 50.5908 204.869 50.5834C204.352 50.5908 203.917 50.8182 203.536 51.1463L202.992 50.5647C203.517 50.1472 204.133 49.849 204.903 49.849C206.1 49.849 206.942 50.397 206.942 51.3812C206.942 52.0671 206.497 52.5405 205.791 52.7754V52.8164C206.561 52.9841 207.169 53.5023 207.169 54.3001C207.169 55.37 206.165 56 204.941 56C203.887 56 203.207 55.6309 202.766 55.1873Z" fill="#1A4D7A"/>
<path d="M209.461 49.9683H213.404V50.7511H210.511V52.4026H212.958V53.1929H210.511V55.109H213.502V55.8993H209.457V49.9683H209.461Z" fill="#1A4D7A"/>
<path d="M219.023 51.0531C218.778 50.7959 218.37 50.6095 217.981 50.6095C217.127 50.6095 216.421 51.1798 216.376 52.8723C216.765 52.4473 217.346 52.1864 217.826 52.1864C218.951 52.1864 219.703 52.7977 219.703 54.054C219.703 55.232 218.797 55.9963 217.709 55.9963C216.44 55.9963 215.405 55.0531 215.405 53.0401C215.405 50.7586 216.61 49.849 217.924 49.849C218.668 49.849 219.212 50.1323 219.593 50.4865L219.023 51.0531ZM218.736 54.0578C218.736 53.2935 218.355 52.8648 217.641 52.8648C217.252 52.8648 216.799 53.0512 216.398 53.5582C216.508 54.7325 216.988 55.2917 217.705 55.2917C218.283 55.2917 218.736 54.8257 218.736 54.0578Z" fill="#1A4D7A"/>
<path d="M221.878 49.9683H223.947C225.315 49.9683 226.304 50.356 226.304 51.4259C226.304 51.9888 225.949 52.5293 225.352 52.7082V52.7493C226.115 52.8946 226.667 53.3532 226.667 54.1584C226.667 55.3327 225.586 55.8993 224.11 55.8993H221.878V49.9683ZM223.827 52.4398C224.842 52.4398 225.269 52.1006 225.269 51.5452C225.269 50.9263 224.797 50.6915 223.853 50.6915H222.928V52.4398H223.827ZM223.993 55.1612C225.035 55.1612 225.632 54.8294 225.632 54.1062C225.632 53.4389 225.05 53.1481 223.993 53.1481H222.932V55.1612H223.993Z" fill="#1A4D7A"/>
<path d="M232.049 51.0531C231.803 50.7959 231.395 50.6095 231.006 50.6095C230.153 50.6095 229.447 51.1798 229.401 52.8723C229.79 52.4473 230.372 52.1864 230.851 52.1864C231.977 52.1864 232.728 52.7977 232.728 54.054C232.728 55.232 231.822 55.9963 230.734 55.9963C229.465 55.9963 228.431 55.0531 228.431 53.0401C228.431 50.7586 229.635 49.849 230.95 49.849C231.694 49.849 232.237 50.1323 232.619 50.4865L232.049 51.0531ZM231.758 54.0578C231.758 53.2935 231.376 52.8648 230.663 52.8648C230.274 52.8648 229.82 53.0512 229.42 53.5582C229.53 54.7325 230.009 55.2917 230.727 55.2917C231.305 55.2917 231.758 54.8257 231.758 54.0578Z" fill="#1A4D7A"/>
<path d="M253.823 54.0913H253.034V53.4725H253.903L254.077 52.2385H253.234V51.6197H254.16L254.394 50.0093H255.028L254.809 51.6197H256.059L256.293 50.0093H256.939L256.713 51.6197H257.528V52.2385H256.629L256.456 53.4725H257.317V54.0913H256.373L256.127 55.8956H255.474L255.719 54.0913H254.469L254.216 55.8956H253.574L253.823 54.0913ZM255.81 53.4725L255.984 52.2385H254.722L254.549 53.4725H255.81Z" fill="#1A4D7A"/>
<path d="M259.624 49.9683H263.574V50.7511H260.674V52.5629H263.14V53.3457H260.674V55.8993H259.62V49.9683H259.624Z" fill="#1A4D7A"/>
<path d="M265.659 49.9683H269.609V50.7511H266.709V52.5629H269.175V53.3457H266.709V55.8993H265.659V49.9683Z" fill="#1A4D7A"/>
<path d="M274.39 54.2031H272.072L271.501 55.8956H270.433L272.646 49.9683H273.862L276.075 55.8956H274.961L274.39 54.2031ZM274.134 53.4725L273.869 52.6747C273.643 52.0298 273.442 51.3699 273.235 50.7027H273.197C273.008 51.3811 272.797 52.0335 272.581 52.6747L272.31 53.4725H274.134Z" fill="#1A4D7A"/>
<path d="M277.227 55.1873L277.733 54.5908C278.122 54.945 278.62 55.2432 279.311 55.2432C280.063 55.2432 280.58 54.8742 280.58 54.2591C280.58 53.5992 280.108 53.1705 278.605 53.1705V52.4846C279.919 52.4846 280.354 52.041 280.354 51.4445C280.354 50.9226 279.965 50.5908 279.33 50.5834C278.813 50.5908 278.378 50.8182 277.997 51.1463L277.453 50.5647C277.978 50.1472 278.594 49.849 279.364 49.849C280.561 49.849 281.403 50.397 281.403 51.3812C281.403 52.0671 280.958 52.5405 280.252 52.7754V52.8164C281.022 52.9841 281.63 53.5023 281.63 54.3001C281.63 55.37 280.625 56 279.402 56C278.348 56 277.668 55.6309 277.227 55.1873Z" fill="#1A4D7A"/>
<path d="M287.004 54.2031H284.685L284.115 55.8956H283.046L285.259 49.9683H286.475L288.688 55.8956H287.574L287.004 54.2031ZM286.751 53.4725L286.486 52.6747C286.26 52.0298 286.06 51.3699 285.852 50.7027H285.814C285.625 51.3811 285.414 52.0335 285.199 52.6747L284.927 53.4725H286.751Z" fill="#1A4D7A"/>
<path d="M290.467 49.9683H292.533C293.9 49.9683 294.889 50.356 294.889 51.4259C294.889 51.9888 294.534 52.5293 293.937 52.7082V52.7493C294.7 52.8946 295.252 53.3532 295.252 54.1584C295.252 55.3327 294.172 55.8993 292.695 55.8993H290.467V49.9683ZM292.415 52.4398C293.431 52.4398 293.858 52.1006 293.858 51.5452C293.858 50.9263 293.386 50.6915 292.446 50.6915H291.52V52.4398H292.415ZM292.578 55.1612C293.62 55.1612 294.217 54.8294 294.217 54.1062C294.217 53.4389 293.635 53.1481 292.578 53.1481H291.517V55.1612H292.578Z" fill="#1A4D7A"/>
<path d="M7.00125 9.11467C6.78599 8.70087 6.25728 7.93293 5.79276 7.29919V13.3085H4.39923V7.73908C3.8252 8.99165 3.13032 10.1585 2.41656 10.945C2.27683 10.6021 1.93694 10.0765 1.72168 9.76331C2.6356 8.82762 3.62504 7.19109 4.19907 5.73349H1.92184V4.53685H4.39923V2.69155C3.73456 2.80339 3.06612 2.8854 2.44677 2.96741C2.40145 2.69155 2.2013 2.23675 2.04646 1.9758C3.77988 1.72976 5.76255 1.33088 6.97104 0.86117L7.79054 1.90497C7.2014 2.11 6.52163 2.27776 5.79276 2.42687V4.53312H7.96048V5.72976H5.79276V5.92361C6.25728 6.34859 7.5715 7.75399 7.86607 8.11187L7.00125 9.11467ZM14.2635 9.78941V13.3122H12.8397V10.0094L7.96048 10.7363L7.74522 9.51355L12.8397 8.75679V0.697144H14.2635V8.55176L15.9516 8.30572L16.1669 9.50236L14.2635 9.78941ZM10.8873 7.93293C10.3775 7.3402 9.2445 6.46042 8.30037 5.88261L9.21429 5.14076C10.1433 5.69248 11.3216 6.51634 11.8616 7.09416L10.8873 7.93293ZM11.2725 4.31317C10.808 3.73535 9.75433 2.89658 8.87062 2.31877L9.81853 1.59183C10.7022 2.12864 11.771 2.92641 12.2808 3.50423L11.2725 4.31317Z" fill="#1A4D7A"/>
<path d="M24.1235 7.78009C23.5344 7.93293 22.9452 8.08205 22.3599 8.23489V11.8509C22.3599 12.5108 22.205 12.8537 21.7556 13.0476C21.3062 13.2414 20.6114 13.2824 19.5577 13.2675C19.4973 12.9656 19.3085 12.4287 19.1234 12.1119C19.8032 12.1268 20.4565 12.1268 20.6416 12.1119C20.8757 12.1119 20.9512 12.0448 20.9512 11.8509V8.59276C20.347 8.74561 19.7881 8.87981 19.248 9.00656L18.8779 7.78382C19.4671 7.6608 20.1771 7.50795 20.9512 7.34393V4.57785H19.0479V3.39239H20.9512V0.697144H22.3599V3.37748H23.9838V4.57412H22.3599V6.99351L23.9536 6.62072L24.1235 7.78009ZM32.4696 6.10255C31.8503 8.00003 30.8117 9.49863 29.4484 10.6543C30.5172 11.37 31.7861 11.9068 33.2589 12.2498C32.9341 12.4958 32.53 13.0066 32.3299 13.3383C30.7664 12.9395 29.4484 12.3206 28.3192 11.4819C27.0805 12.3057 25.6417 12.9134 24.0933 13.3122C23.9385 12.9805 23.5835 12.4325 23.3191 12.1566C24.758 11.8397 26.1062 11.3178 27.2996 10.6021C26.2761 9.59929 25.4868 8.41383 24.9015 7.03824L25.1016 6.98232H24.4823V5.8155H27.6734V3.93293H24.2066V2.76238H27.6734V0.697144H29.0972V2.75865H32.6736V3.9292H29.0972V5.81178H31.2951L31.5444 5.77077L32.4696 6.10255ZM26.3063 6.98232C26.8011 8.05595 27.4846 9.00283 28.3797 9.8155C29.3389 9.03265 30.1131 8.08205 30.6418 6.98232H26.3063Z" fill="#1A4D7A"/>
<path d="M77.9241 8.33553V9.5881H64.0039V8.33553H67.4556V5.36443H64.5893V4.12677H67.4556V1.47253H68.9436V4.12677H72.9391V1.47253H74.4422V4.12677H77.4143V5.36443H74.4422V8.33553H77.9241ZM69.6725 10.7847C68.5584 11.9553 66.8552 13.219 65.3219 13.9907C65.0273 13.7298 64.5024 13.316 64.1587 13.096C65.6467 12.3952 67.3159 11.2395 68.1543 10.2628L69.6725 10.7847ZM68.9436 8.33553H72.9391V5.36443H68.9436V8.33553ZM73.4339 10.2181C74.8274 11.1128 76.7157 12.3915 77.7089 13.2302L76.3153 13.9721C75.4316 13.1743 73.5736 11.8248 72.165 10.8779L73.4339 10.2181Z" fill="#1A4D7A"/>
<path d="M81.0508 1.93853H88.4528V3.01215H81.0508V1.93853ZM88.1884 12.6673C88.1884 13.1631 88.094 13.4502 87.7239 13.6291C87.3538 13.782 86.8251 13.7931 86.0509 13.7931C86.0056 13.5024 85.8658 13.1072 85.711 12.8164C86.2057 12.8314 86.6853 12.8314 86.81 12.8314C86.9648 12.8164 87.0101 12.7754 87.0101 12.6375V8.15661H82.4103V13.9758H81.2811V7.17991H88.1884V12.6673ZM87.7239 6.53126H81.7948V3.67198H87.7239V6.53126ZM85.2503 11.0718V13.562H84.1966V11.0718H82.8182V10.2479H84.7367C85.0917 9.68503 85.4957 8.89845 85.6959 8.35046L86.6098 8.68224C86.3001 9.19295 85.9905 9.77077 85.6657 10.2517H86.5645V11.0755H85.2503V11.0718ZM83.717 8.41756C84.0569 8.88354 84.3968 9.50609 84.5365 9.91616L83.717 10.192C83.5924 9.77823 83.2676 9.13331 82.9277 8.6636L83.717 8.41756ZM86.4248 4.58158H83.0183V5.6403H86.4248V4.58158ZM94.0571 13.987C94.0118 13.6701 93.9325 13.3011 93.8267 12.8724C92.1084 13.1743 90.3108 13.4651 88.9475 13.6701L88.6227 12.4996C89.3213 12.4176 90.156 12.3206 91.0548 12.1827V9.34952H88.8719V4.01495H91.0548V1.51355H92.3237V4.01495H94.4914V9.35325H92.3086V12.0075L93.5322 11.8435C93.3471 11.2806 93.147 10.7288 92.943 10.233L93.9476 10.028C94.4725 11.2097 94.9861 12.7792 95.141 13.7149L94.0571 13.987ZM89.9256 8.25353H91.1643V5.1184H89.9256V8.25353ZM93.3924 5.11467H92.2142V8.2498H93.3924V5.11467Z" fill="#1A4D7A"/>
<path d="M129.467 9.08856C129.437 9.2675 129.406 9.44643 129.373 9.62537H135.181V13.2153H133.912V12.7493H130.581V13.2451H129.357V9.79313C129.142 10.8518 128.783 11.9255 128.179 12.8052C127.915 12.6263 127.295 12.3803 126.94 12.2684C128.149 10.576 128.289 8.23861 128.289 6.68409V4.95063H134.807V9.09229H129.467V9.08856ZM132.719 1.19294C132.639 1.31596 132.549 1.4278 132.454 1.55081C133.632 2.16964 134.992 2.91149 135.721 3.40729L134.977 4.48092C134.233 3.9441 132.839 3.13143 131.65 2.46041C131.246 2.84438 130.815 3.21717 130.351 3.56013H133.308V4.3579H130.101V3.75398C129.342 4.2908 128.538 4.75678 127.734 5.14448C127.594 4.8537 127.209 4.22369 126.959 3.94783C128.693 3.23208 130.445 2.09136 131.404 0.75678L132.719 1.19294ZM133.508 8.16778V7.39611H129.622C129.607 7.64215 129.592 7.90683 129.576 8.16778H133.508ZM129.637 5.86768V6.59835H133.508V5.86768H129.637ZM130.581 10.5312V11.7689H133.912V10.5312H130.581ZM137.688 9.73348H136.34V2.16964H137.688V9.73348ZM140.57 0.753052V11.7167C140.57 12.4586 140.385 12.8313 139.89 13.0252C139.411 13.2451 138.606 13.2861 137.352 13.2861C137.292 12.9432 137.088 12.3654 136.888 12.0075C137.771 12.0336 138.576 12.0336 138.821 12.0224C139.086 12.0224 139.176 11.9553 139.176 11.7055V0.753052H140.57Z" fill="#1A4D7A"/>
<path d="M146.623 9.47248C146.234 10.4343 145.619 11.534 145.06 12.2386C144.826 12.0745 144.361 11.7726 144.07 11.6346C144.644 10.9897 145.169 10.054 145.494 9.17426L146.623 9.47248ZM148.621 8.5778V13.2414H147.227V8.5778H144.255V7.49299H147.227V6.24042H144.161V5.1668H145.849C145.789 4.70082 145.57 3.98507 145.309 3.44825L146.487 3.1873C146.737 3.72412 146.982 4.42495 147.061 4.87975L145.917 5.1668H148.364C148.644 4.58898 148.968 3.75021 149.123 3.17239L150.456 3.41843C150.192 4.02234 149.931 4.65608 149.667 5.1668H151.48V6.24042H148.632V7.49299H151.265V8.58152H148.621V8.5778ZM151.219 3.15748H144.406V2.09877H147.239C147.069 1.7148 146.869 1.27491 146.68 0.928216L148.104 0.596436C148.368 1.06242 148.678 1.64024 148.878 2.09504H151.215V3.15748H151.219ZM150.12 9.05869C150.63 9.70361 151.159 10.5722 151.404 11.1202L150.396 11.657C150.147 11.0792 149.622 10.1845 149.157 9.52467L150.12 9.05869ZM158.266 6.44546H156.688V13.2525H155.279V6.44546H153.466V6.77724C153.466 8.75673 153.266 11.5079 151.888 13.2563C151.672 13.0214 151.083 12.6374 150.789 12.4995C152.012 10.904 152.122 8.5778 152.122 6.77724V2.01675C153.84 1.7558 155.744 1.3271 156.861 0.902121L157.991 1.83781C156.722 2.2777 155.049 2.60948 153.47 2.85552V5.26372H158.27V6.44546H158.266Z" fill="#1A4D7A"/>
<path d="M204.396 8.05966H198.187V12.7344H196.699V8.05966H190.566V6.76609H196.699V2.25537H191.375V1.00281H203.512V2.25537H198.187V6.76609H204.396V8.05966ZM193.678 2.81828C194.252 3.76888 194.841 4.99162 195.042 5.78939L193.663 6.20318C193.463 5.42033 192.934 4.13794 192.379 3.17615L193.678 2.81828ZM199.672 5.86022C200.196 5.03636 200.85 3.72788 201.19 2.76609L202.723 3.13887C202.164 4.2125 201.484 5.45015 200.91 6.21809L199.672 5.86022Z" fill="#1A4D7A"/>
<path d="M209.86 2.13234C209.411 2.73625 208.886 3.30289 208.372 3.71295C208.157 3.49301 207.692 3.03821 207.383 2.83318C208.342 2.14725 209.226 1.07363 209.72 0L211.004 0.33178C210.88 0.577819 210.755 0.797763 210.6 1.04753H214.347V2.13234H211.794C212.258 2.49021 212.753 2.90401 213.048 3.20596L212.119 3.94781C211.809 3.57502 211.11 2.97111 210.57 2.54613L211.114 2.13234H209.86ZM218.297 8.39143H221.284V9.43523H218.297V11.4967C218.297 12.1417 218.112 12.4473 217.538 12.5853C216.949 12.7381 216.05 12.7381 214.751 12.7381C214.69 12.4063 214.517 11.9963 214.366 11.6943C215.28 11.7353 216.239 11.7204 216.473 11.7092C216.737 11.6943 216.813 11.6421 216.813 11.4483V9.43896H211.269C212.088 10.0168 213.187 10.8555 213.746 11.3774L212.662 12.1342C212.153 11.5974 211.054 10.6915 210.2 10.0578L211.144 9.43896H207.677V8.39515H216.813V7.55638H218.301V8.39143H218.297ZM221.567 1.0438V2.14352H218.44C218.905 2.52749 219.415 3.00839 219.679 3.34017L218.69 4.08201C218.41 3.66822 217.776 3.04939 217.251 2.60951L217.9 2.14352H216.537C216.167 2.77726 215.718 3.34017 215.268 3.78006L215.223 3.73905V4.13793H220.782V5.22647H215.223V6.25909H219.883V7.26188H209.014V6.25909H213.739V5.22647H208.225V4.13793H213.739V3.36999H214.713C214.528 3.23206 214.328 3.10904 214.188 3.02703C215.023 2.29637 215.721 1.15564 216.107 0.0149115L217.425 0.290774C217.33 0.551724 217.24 0.801491 217.13 1.04753H221.567V1.0438Z" fill="#1A4D7A"/>
<path d="M265.829 6.06156C265.255 7.97396 264.251 9.43155 262.948 10.5872C264.266 11.3179 265.844 11.8398 267.732 12.1268C267.408 12.4027 267.004 12.9395 266.803 13.2973C264.836 12.9134 263.182 12.3057 261.818 11.426C260.519 12.2796 259.031 12.8836 257.423 13.3234C257.238 12.9805 256.883 12.4996 256.603 12.2237C258.091 11.8919 259.481 11.3589 260.674 10.6021C259.715 9.77824 258.926 8.78663 258.291 7.6459C257.593 9.57321 256.494 11.4819 254.73 12.8575C254.45 12.5406 253.971 12.2125 253.491 11.9777C256.218 10.0094 257.283 6.68039 257.702 4.11189H254.046V2.87051H257.887C257.997 1.86771 258.012 1.08113 258.042 0.682251H259.53C259.5 1.14823 259.469 1.90499 259.36 2.87051H267.336V4.10816H259.175C259.099 4.61888 258.99 5.18178 258.865 5.74469H264.594L264.874 5.68877L265.829 6.06156ZM259.375 6.98234C259.949 8.06715 260.753 9.03267 261.777 9.80061C262.691 9.02894 263.435 8.08206 263.945 6.98234H259.375Z" fill="#1A4D7A"/>
<path d="M284.629 7.87702V8.87982H270.803V7.87702H273.73C273.59 7.53406 273.31 7.10535 273.05 6.79221L274.228 6.54617H271.286V5.58438H276.936V4.80899H272.661V3.87329H276.936V3.14636H271.702V2.18457H274.534C274.349 1.84161 274.024 1.36071 273.745 1.01402L275.029 0.641235C275.399 1.01402 275.773 1.53592 275.927 1.87889L275.014 2.18084H279.379C279.674 1.72604 280.029 1.12213 280.214 0.66733L281.732 0.928281C281.453 1.38308 281.158 1.82297 280.878 2.18084H283.726V3.14263H278.401V3.87329H282.782V4.80899H278.401V5.58066H284.209V6.54245H281.128L282.427 6.76239C282.193 7.16127 281.962 7.54524 281.747 7.87702H284.629ZM272.906 9.55456H282.585V13.2675H281.113V12.8835H274.33V13.3085H272.906V9.55456ZM274.33 10.5611V11.8807H281.113V10.5611H274.33ZM274.394 6.54245C274.719 6.88541 275.029 7.38122 275.168 7.713L274.504 7.87702H280.248C280.512 7.46323 280.788 6.92642 280.943 6.54245H274.394Z" fill="#1A4D7A"/>
</g>
<defs>
<clipPath id="clip0_2487_2657">
<rect width="316" height="56" fill="white"/>
</clipPath>
</defs>
</svg>
