<svg width="66" height="63" viewBox="0 0 66 63" fill="none" xmlns="http://www.w3.org/2000/svg">
<g clip-path="url(#clip0_2487_2652)">
<path d="M41.7263 5.61198V57.3915C41.7263 61.7387 37.0199 64.4306 33.309 62.2017L15.0359 48.7869H6.69749C2.99688 48.7869 0 45.7701 0 42.0484V20.9551C0 17.2333 2.99688 14.2131 6.69749 14.2131H15.0359L33.309 0.798258C37.0199 -1.42718 41.7263 1.26477 41.7263 5.61198Z" fill="#1A4D7A"/>
<path d="M47.0298 47.4461C46.5183 47.4461 46.0068 47.2353 45.636 46.8206C44.946 46.0465 45.0113 44.8543 45.7802 44.1632L49.9889 40.362C52.9308 37.7046 54.6164 33.9034 54.6164 29.9259C54.6164 25.9485 52.9308 22.1438 49.9889 19.4899L45.7802 15.6886C45.0113 14.994 44.946 13.8053 45.636 13.0312C46.326 12.2572 47.5069 12.1915 48.2759 12.8861L52.4846 16.6873C56.2195 20.0566 58.3582 24.8807 58.3582 29.9259C58.3582 34.9712 56.2195 39.7953 52.488 43.1645L48.2793 46.9657C47.9223 47.2871 47.476 47.4461 47.0298 47.4461Z" fill="#1A4D7A"/>
<path d="M48.8423 57.0908C48.3308 57.0908 47.8193 56.88 47.4485 56.4653C46.7585 55.6913 46.8238 54.5025 47.5927 53.8079L54.3966 47.6638C59.3949 43.1507 62.2613 36.6852 62.2613 29.9259C62.2613 23.1667 59.3949 16.7046 54.3966 12.1881L47.5927 6.04392C46.8238 5.34933 46.7585 4.16059 47.4485 3.38652C48.1385 2.61246 49.3194 2.5468 50.0884 3.24139L56.8923 9.38554C62.6801 14.6105 65.9997 22.0989 65.9997 29.9259C65.9997 37.753 62.6801 45.2379 56.8923 50.4663L50.0884 56.6105C49.7348 56.9319 49.2885 57.0908 48.8423 57.0908Z" fill="#1A4D7A"/>
</g>
<defs>
<clipPath id="clip0_2487_2652">
<rect width="66" height="63" fill="white"/>
</clipPath>
</defs>
</svg>
