<svg width="41" height="36" viewBox="0 0 41 36" fill="none" xmlns="http://www.w3.org/2000/svg">
<path d="M23.198 1.00661C13.4168 0.742214 5.40353 8.44738 5.40353 18.0033H1.96378C1.09903 18.0033 0.676268 19.0231 1.2912 19.6085L6.65261 24.8964C7.03694 25.2741 7.63265 25.2741 8.01698 24.8964L13.3784 19.6085C13.9933 19.0231 13.5513 18.0033 12.7058 18.0033H9.24684C9.24684 10.6381 15.3577 4.68922 22.8906 4.78365C30.0391 4.87808 36.0539 10.7891 36.15 17.8144C36.2461 25.1986 30.1929 31.223 22.6984 31.223C19.6046 31.223 16.7413 30.1843 14.4737 28.4279C13.7051 27.8425 12.6289 27.8992 11.9372 28.579C11.1301 29.3911 11.1877 30.7131 12.0909 31.4118C15.0118 33.6591 18.7014 35 22.6984 35C32.4028 35 40.2623 27.1249 39.9933 17.5123C39.7435 8.65512 32.2106 1.25211 23.198 1.00661Z" fill="#1E5285" stroke="#DADADA"/>
<path d="M19.7473 17.7695L20.2102 13.4688H24.7922V14.6992H21.3938L21.1594 16.7383C21.5539 16.5117 21.9993 16.3984 22.4954 16.3984C23.3079 16.3984 23.9387 16.6582 24.3879 17.1777C24.8411 17.6973 25.0676 18.3965 25.0676 19.2754C25.0676 20.1426 24.8176 20.834 24.3176 21.3496C23.8176 21.8613 23.1321 22.1172 22.261 22.1172C21.4797 22.1172 20.8313 21.8965 20.3157 21.4551C19.8039 21.0098 19.5266 20.4238 19.4836 19.6973H20.8606C20.9153 20.1113 21.0637 20.4297 21.3059 20.6523C21.5481 20.8711 21.8645 20.9805 22.2551 20.9805C22.6926 20.9805 23.0325 20.8242 23.2746 20.5117C23.5207 20.1992 23.6438 19.7734 23.6438 19.2344C23.6438 18.7148 23.509 18.3047 23.2395 18.0039C22.97 17.6992 22.5989 17.5469 22.1262 17.5469C21.8684 17.5469 21.6496 17.582 21.47 17.6523C21.2903 17.7188 21.095 17.8516 20.884 18.0508L19.7473 17.7695Z" fill="#1C4E7A"/>
</svg>
