<svg width="22" height="22" viewBox="0 0 22 22" fill="none" xmlns="http://www.w3.org/2000/svg">
<path d="M0.925353 22L7.23601 15.4012L7.23601 19.6632L8.54492 19.6632L8.54492 13.0657L2.23364 13.0657L2.23364 14.4338L6.31152 14.4338L0.000234688 21.0326L0.925353 22Z" fill="white"/>
<path d="M18.8071 7.56585L14.7295 7.56585L21.042 0.967689L20.1169 -1.98822e-06L13.8043 6.59881L13.8043 2.33557L12.4957 2.33557L12.4957 8.93439L18.8076 8.93439L18.8071 7.56585Z" fill="white"/>
<path d="M13.8053 15.401L20.1179 21.9998L21.043 21.0326L14.7304 14.4338L18.8081 14.4338L18.8081 13.0657L12.4962 13.0657L12.4962 19.6632L13.8048 19.6632L13.8053 15.401Z" fill="white"/>
<path d="M2.23364 7.56696L2.23364 8.93536L8.54492 8.93536L8.54492 2.33655L7.23601 2.33655L7.23601 6.59979L0.925353 0.000973989L0.0002353 0.968664L6.31152 7.56683L2.23364 7.56696Z" fill="white"/>
</svg>
