<svg width="22" height="22" viewBox="0 0 22 22" fill="none" xmlns="http://www.w3.org/2000/svg">
<path d="M7.61957 13.0657L1.30891 19.6645V15.4025H0V22H6.31128V20.6319H2.2334L8.54469 14.033L7.61957 13.0657Z" fill="white"/>
<path d="M14.731 1.36854H18.8086L12.4961 7.9667L13.4212 8.93439L19.7337 2.33557V6.59882H21.0424V0H14.7305L14.731 1.36854Z" fill="white"/>
<path d="M19.7337 19.6645L13.4212 13.0657L12.4961 14.0328L18.8086 20.6317H14.731V21.9998H21.0429V15.4023H19.7342L19.7337 19.6645Z" fill="white"/>
<path d="M6.31128 1.36935V0.000946045H0V6.59976H1.30891V2.33652L7.61957 8.93534L8.54469 7.96764L2.2334 1.36948L6.31128 1.36935Z" fill="white"/>
</svg>
