<?xml version="1.0" encoding="utf-8"?>
<!-- Generator: Adobe Illustrator 24.1.0, SVG Export Plug-In . SVG Version: 6.00 Build 0)  -->
<svg version="1.1" id="圖層_1" xmlns="http://www.w3.org/2000/svg" xmlns:xlink="http://www.w3.org/1999/xlink" x="0px" y="0px"
	 viewBox="0 0 19 22" style="enable-background:new 0 0 19 22;" xml:space="preserve">
<g>
	<path d="M9.5,21.9c-5.2,0-9.4-4.1-9.4-9.2C0.1,8,3.8,4,8.5,3.5c-0.7-0.7-2-1.7-3.2-2.7C5.1,0.7,5,0.4,5.2,0.2
		C5.4,0,5.7-0.1,5.9,0.1c4.3,3.4,4.2,3.7,4.1,4C10,4.3,9.7,4.5,9.5,4.5c-4.6,0-8.4,3.7-8.4,8.2s3.8,8.2,8.4,8.2s8.4-3.7,8.4-8.2
		c0-2.2-0.8-4.1-2.5-5.7c-0.2-0.2-0.2-0.5,0-0.7s0.5-0.2,0.7,0c1.8,1.8,2.7,4,2.7,6.5C18.9,17.8,14.7,21.9,9.5,21.9z"/>
</g>
<g>
	<path d="M7.3,4.6c-0.1,0-0.2,0-0.3-0.1L4.3,2.4C4.1,2.2,4,1.9,4.2,1.7c0.2-0.2,0.5-0.3,0.7-0.1l2.7,2.1c0.2,0.2,0.3,0.5,0.1,0.7
		C7.6,4.5,7.4,4.6,7.3,4.6z"/>
</g>
<g>
	<path d="M6.5,8.7c-0.1,0-0.2,0-0.3-0.1C6,8.4,5.9,8.1,6.1,7.9l3-4.1c0.2-0.2,0.5-0.3,0.7-0.1c0.2,0.2,0.3,0.5,0.1,0.7l-3,4.1
		C6.8,8.6,6.7,8.7,6.5,8.7z"/>
</g>
<g>
	<path d="M4.3,8.9c-0.1,0-0.2,0-0.3-0.1C3.8,8.6,3.7,8.3,3.9,8.1l3-4.1c0.2-0.2,0.5-0.3,0.7-0.1c0.2,0.2,0.3,0.5,0.1,0.7l-3,4.1
		C4.6,8.8,4.5,8.9,4.3,8.9z"/>
</g>
<path d="M8.7,17H7.4v-3.7c0-0.2,0-0.4,0-0.6c0-0.3,0-0.5,0-0.7c0,0-0.1,0.1-0.2,0.2c-0.1,0.1-0.2,0.2-0.3,0.2L6.2,13l-0.7-0.8
	l2.1-1.6h1.1V17z M14.3,13.8c0,0.7-0.1,1.3-0.2,1.8c-0.1,0.5-0.4,0.9-0.7,1.1c-0.3,0.3-0.8,0.4-1.3,0.4c-0.8,0-1.3-0.3-1.7-0.9
	c-0.4-0.6-0.5-1.4-0.5-2.4c0-0.7,0.1-1.3,0.2-1.8c0.1-0.5,0.4-0.9,0.7-1.1c0.3-0.3,0.8-0.4,1.3-0.4c0.8,0,1.3,0.3,1.7,0.9
	C14.2,11.9,14.3,12.7,14.3,13.8z M11.2,13.8c0,0.7,0.1,1.3,0.2,1.7c0.1,0.4,0.4,0.5,0.7,0.5s0.6-0.2,0.7-0.5s0.2-0.9,0.2-1.7
	c0-0.7-0.1-1.3-0.2-1.7c-0.1-0.4-0.4-0.6-0.7-0.6s-0.6,0.2-0.7,0.6C11.3,12.5,11.2,13.1,11.2,13.8z"/>
</svg>
