<svg width="41" height="36" viewBox="0 0 41 36" fill="none" xmlns="http://www.w3.org/2000/svg">
<path d="M18.135 1.00661C27.9162 0.742214 35.9295 8.44738 35.9295 18.0033H39.3692C40.234 18.0033 40.6567 19.0231 40.0418 19.6085L34.6804 24.8964C34.2961 25.2741 33.7004 25.2741 33.316 24.8964L27.9546 19.6085C27.3397 19.0231 27.7817 18.0033 28.6272 18.0033H32.0862C32.0862 10.6381 25.9753 4.68922 18.4424 4.78365C11.2939 4.87808 5.27911 10.7891 5.18303 17.8144C5.08694 25.1986 11.1401 31.223 18.6346 31.223C21.7285 31.223 24.5917 30.1843 26.8593 28.4279C27.6279 27.8425 28.7041 27.8992 29.3959 28.579C30.2029 29.3911 30.1453 30.7131 29.2421 31.4118C26.3212 33.6591 22.6316 35 18.6346 35C8.93025 35 1.07069 27.1249 1.33972 17.5123C1.58953 8.65512 9.12241 1.25211 18.135 1.00661Z" fill="#1E5285" stroke="#DADADA"/>
<path d="M15.0803 17.7695L15.5432 13.4688H20.1252V14.6992H16.7268L16.4924 16.7383C16.887 16.5117 17.3323 16.3984 17.8284 16.3984C18.6409 16.3984 19.2717 16.6582 19.7209 17.1777C20.1741 17.6973 20.4006 18.3965 20.4006 19.2754C20.4006 20.1426 20.1506 20.834 19.6506 21.3496C19.1506 21.8613 18.4651 22.1172 17.594 22.1172C16.8127 22.1172 16.1643 21.8965 15.6487 21.4551C15.137 21.0098 14.8596 20.4238 14.8166 19.6973H16.1936C16.2483 20.1113 16.3967 20.4297 16.6389 20.6523C16.8811 20.8711 17.1975 20.9805 17.5881 20.9805C18.0256 20.9805 18.3655 20.8242 18.6077 20.5117C18.8538 20.1992 18.9768 19.7734 18.9768 19.2344C18.9768 18.7148 18.842 18.3047 18.5725 18.0039C18.303 17.6992 17.9319 17.5469 17.4592 17.5469C17.2014 17.5469 16.9827 17.582 16.803 17.6523C16.6233 17.7188 16.428 17.8516 16.217 18.0508L15.0803 17.7695Z" fill="#1C4E7A"/>
</svg>
