<svg width="77" height="71" viewBox="0 0 77 71" fill="none" xmlns="http://www.w3.org/2000/svg">
<path d="M38.4959 71C59.7566 71 76.9917 55.1061 76.9917 35.5C76.9917 15.8939 59.7566 0 38.4959 0C17.2352 0 0 15.8939 0 35.5C0 55.1061 17.2352 71 38.4959 71Z" fill="#1E5285"/>
<path d="M21.8971 44.5417H18.48C17.2172 44.5417 16.0864 45.3333 15.6407 46.525C15.195 47.7167 14.0642 48.5083 12.8014 48.5083H11.2662C9.17795 48.5083 7.71702 46.4333 8.39383 44.4417L14.3036 27.025C14.7245 25.7833 15.8801 24.95 17.1759 24.95H22.8876C24.1834 24.95 25.3389 25.7833 25.7599 27.025L31.6696 44.4417C32.3465 46.4333 30.8773 48.5083 28.7973 48.5083H27.584C26.3212 48.5083 25.1904 47.7167 24.7447 46.525C24.2907 45.325 23.1599 44.5417 21.8971 44.5417Z" fill="#FFB53C"/>
<path d="M58.8336 44.5417H55.4165C54.1537 44.5417 53.0229 45.3333 52.5772 46.525C52.1315 47.7167 51.0007 48.5083 49.7379 48.5083H48.2027C46.1145 48.5083 44.6535 46.4333 45.3304 44.4417L51.2401 27.025C51.6611 25.7833 52.8166 24.95 54.1124 24.95H59.8241C61.1199 24.95 62.2755 25.7833 62.6964 27.025L68.6062 44.4417C69.283 46.4333 67.8138 48.5083 65.7338 48.5083H64.5205C63.2577 48.5083 62.1269 47.7167 61.6812 46.525C61.2272 45.325 60.0965 44.5417 58.8336 44.5417Z" fill="#FFB53C"/>
<path d="M47.9544 29.8167H42.705C41.6898 29.8167 40.9139 30.725 41.0625 31.7417L41.0955 31.9417C41.2193 32.7583 41.9126 33.3667 42.738 33.3667H45.6268C46.7659 33.3667 47.5665 34.5 47.1951 35.5833L45.8414 39.575C45.6103 40.25 44.983 40.7083 44.2732 40.7083C43.2662 40.7083 42.4904 41.6083 42.6307 42.6167L43.1755 46.5917C43.3158 47.6 42.5399 48.5 41.5329 48.5H35.4911C34.7813 48.5 34.1458 48.0417 33.9147 47.3583L26.3707 24.7167C26.0075 23.6333 26.8081 22.5083 27.9471 22.5083H49.2585C50.3893 22.5083 51.1899 23.625 50.835 24.7083L49.5392 28.6667C49.2998 29.35 48.6643 29.8167 47.9544 29.8167Z" fill="#FFB53C"/>
</svg>
