<svg width="145" height="20" viewBox="0 0 145 20" fill="none" xmlns="http://www.w3.org/2000/svg">
<path d="M8.32 2.008H11.416L18.808 19H14.584L13.12 15.4H6.52L5.104 19H0.976L8.32 2.008ZM9.76 6.952L7.696 12.232H11.848L9.76 6.952ZM22.4611 7.336H26.0611V9.208H26.1091C26.4931 8.488 26.9491 7.952 27.4771 7.6C28.0051 7.232 28.6691 7.048 29.4691 7.048C29.6771 7.048 29.8851 7.056 30.0931 7.072C30.3011 7.088 30.4931 7.12 30.6691 7.168V10.456C30.4131 10.376 30.1571 10.32 29.9011 10.288C29.6611 10.24 29.4051 10.216 29.1331 10.216C28.4451 10.216 27.9011 10.312 27.5011 10.504C27.1011 10.696 26.7891 10.968 26.5651 11.32C26.3571 11.656 26.2211 12.064 26.1571 12.544C26.0931 13.024 26.0611 13.552 26.0611 14.128V19H22.4611V7.336ZM42.5785 10.216H39.4105V14.104C39.4105 14.424 39.4265 14.72 39.4585 14.992C39.4905 15.248 39.5625 15.472 39.6745 15.664C39.7865 15.856 39.9545 16.008 40.1785 16.12C40.4185 16.216 40.7305 16.264 41.1145 16.264C41.3065 16.264 41.5545 16.248 41.8585 16.216C42.1785 16.168 42.4185 16.072 42.5785 15.928V18.928C42.1785 19.072 41.7625 19.168 41.3305 19.216C40.8985 19.264 40.4745 19.288 40.0585 19.288C39.4505 19.288 38.8905 19.224 38.3785 19.096C37.8665 18.968 37.4185 18.768 37.0345 18.496C36.6505 18.208 36.3465 17.84 36.1225 17.392C35.9145 16.944 35.8105 16.4 35.8105 15.76V10.216H33.5065V7.336H35.8105V3.88H39.4105V7.336H42.5785V10.216ZM56.9095 2.008H68.3095V5.464H60.6535V8.92H67.7335V12.376H60.6535V19H56.9095V2.008ZM72.5041 13.168C72.5041 12.24 72.6721 11.4 73.0081 10.648C73.3441 9.896 73.8001 9.256 74.3761 8.728C74.9681 8.184 75.6561 7.768 76.4401 7.48C77.2401 7.192 78.0881 7.048 78.9841 7.048C79.8801 7.048 80.7201 7.192 81.5041 7.48C82.3041 7.768 82.9921 8.184 83.5681 8.728C84.1601 9.256 84.6241 9.896 84.9601 10.648C85.2961 11.4 85.4641 12.24 85.4641 13.168C85.4641 14.096 85.2961 14.936 84.9601 15.688C84.6241 16.44 84.1601 17.088 83.5681 17.632C82.9921 18.16 82.3041 18.568 81.5041 18.856C80.7201 19.144 79.8801 19.288 78.9841 19.288C78.0881 19.288 77.2401 19.144 76.4401 18.856C75.6561 18.568 74.9681 18.16 74.3761 17.632C73.8001 17.088 73.3441 16.44 73.0081 15.688C72.6721 14.936 72.5041 14.096 72.5041 13.168ZM76.1041 13.168C76.1041 14.048 76.3521 14.76 76.8481 15.304C77.3601 15.848 78.0721 16.12 78.9841 16.12C79.8961 16.12 80.6001 15.848 81.0961 15.304C81.6081 14.76 81.8641 14.048 81.8641 13.168C81.8641 12.288 81.6081 11.576 81.0961 11.032C80.6001 10.488 79.8961 10.216 78.9841 10.216C78.0721 10.216 77.3601 10.488 76.8481 11.032C76.3521 11.576 76.1041 12.288 76.1041 13.168ZM89.9845 7.336H93.5845V9.208H93.6325C94.0165 8.488 94.4725 7.952 95.0005 7.6C95.5285 7.232 96.1925 7.048 96.9925 7.048C97.2005 7.048 97.4085 7.056 97.6165 7.072C97.8245 7.088 98.0165 7.12 98.1925 7.168V10.456C97.9365 10.376 97.6805 10.32 97.4245 10.288C97.1845 10.24 96.9285 10.216 96.6565 10.216C95.9685 10.216 95.4245 10.312 95.0245 10.504C94.6245 10.696 94.3125 10.968 94.0885 11.32C93.8805 11.656 93.7445 12.064 93.6805 12.544C93.6165 13.024 93.5845 13.552 93.5845 14.128V19H89.9845V7.336ZM117.707 2.008H120.803L128.195 19H123.971L122.507 15.4H115.907L114.491 19H110.363L117.707 2.008ZM119.147 6.952L117.083 12.232H121.235L119.147 6.952ZM131.897 0.855999H135.497V19H131.897V0.855999ZM140.531 0.855999H144.131V19H140.531V0.855999Z" fill="#1E5285"/>
</svg>
