<?xml version="1.0" encoding="utf-8"?>
<!-- Generator: Adobe Illustrator 24.1.0, SVG Export Plug-In . SVG Version: 6.00 Build 0)  -->
<svg version="1.1" id="圖層_1" xmlns="http://www.w3.org/2000/svg" xmlns:xlink="http://www.w3.org/1999/xlink" x="0px" y="0px"
	 viewBox="0 0 18 22" style="enable-background:new 0 0 18 22;" xml:space="preserve">
<g>
	<path d="M9,21.9c-4.9,0-9-4.1-9-9.2C0,10.3,1,8,2.7,6.3c0.2-0.2,0.5-0.2,0.7,0c0.2,0.2,0.2,0.5,0,0.7C1.9,8.5,1,10.6,1,12.8
		c0,4.5,3.6,8.2,8,8.2s8-3.7,8-8.2c0-4.5-3.6-8.2-8-8.2c-0.2,0-0.5-0.2-0.5-0.4c-0.1-0.4-0.2-0.6,3.9-4C12.6,0,12.9,0,13.1,0.2
		c0.2,0.2,0.1,0.5-0.1,0.7c-1.1,0.9-2.4,2-3.1,2.7c4.5,0.5,8,4.4,8,9.1C18,17.8,14,21.9,9,21.9z"/>
</g>
<g>
	<path d="M11.1,4.6c-0.1,0-0.2,0-0.3-0.1c-0.1-0.2-0.1-0.4,0-0.5l2.6-2.1c0.2-0.1,0.4-0.1,0.5,0c0.1,0.2,0.1,0.4,0,0.5l-2.6,2.1
		C11.3,4.5,11.2,4.6,11.1,4.6z"/>
</g>
<g>
	<path d="M11.8,8.7c-0.2,0-0.3-0.1-0.4-0.2L8.6,4.4C8.4,4.1,8.5,3.8,8.7,3.7C9,3.5,9.3,3.6,9.4,3.8l2.8,4.1c0.2,0.2,0.1,0.5-0.1,0.7
		C12,8.6,11.9,8.7,11.8,8.7z"/>
</g>
<g>
	<path d="M13.9,8.8c-0.1,0-0.2-0.1-0.3-0.2l-2.8-4.1c-0.1-0.2-0.1-0.4,0.1-0.5c0.2-0.1,0.4-0.1,0.5,0.1l2.8,4.1
		c0.1,0.2,0.1,0.4-0.1,0.5C14,8.8,14,8.8,13.9,8.8z"/>
</g>
<path d="M7.7,17H6.4v-3.7c0-0.2,0-0.4,0-0.6c0-0.3,0-0.5,0-0.7c0,0-0.1,0.1-0.2,0.2c-0.1,0.1-0.2,0.2-0.3,0.2L5.2,13l-0.7-0.8
	l2.1-1.6h1.1V17z M13.3,13.8c0,0.7-0.1,1.3-0.2,1.8c-0.1,0.5-0.4,0.9-0.7,1.1c-0.3,0.3-0.8,0.4-1.3,0.4c-0.8,0-1.3-0.3-1.7-0.9
	c-0.4-0.6-0.5-1.4-0.5-2.4c0-0.7,0.1-1.3,0.2-1.8c0.1-0.5,0.4-0.9,0.7-1.1c0.3-0.3,0.8-0.4,1.3-0.4c0.8,0,1.3,0.3,1.7,0.9
	C13.2,11.9,13.3,12.7,13.3,13.8z M10.2,13.8c0,0.7,0.1,1.3,0.2,1.7c0.1,0.4,0.4,0.5,0.7,0.5c0.3,0,0.6-0.2,0.7-0.5s0.2-0.9,0.2-1.7
	c0-0.7-0.1-1.3-0.2-1.7c-0.1-0.4-0.4-0.6-0.7-0.6c-0.3,0-0.6,0.2-0.7,0.6C10.3,12.5,10.2,13.1,10.2,13.8z"/>
</svg>
