<svg width="24" height="24" viewBox="0 0 24 24" fill="none" xmlns="http://www.w3.org/2000/svg">
<rect width="24" height="24" rx="5" fill="#1E5285"/>
<path d="M6.496 7.456H17.44V10.08H18.656V6.352H12.592V4.592H11.36V6.352H5.328V10.08H6.496V7.456ZM18.864 13.184H12.64V12.688C14 11.936 15.424 10.816 16.384 9.728L15.6 9.136L15.344 9.2H7.76V10.304H14.24C13.6 10.912 12.784 11.536 11.984 12H11.392V13.184H5.184V14.32H11.392V17.728C11.392 17.952 11.312 18.016 11.024 18.032C10.752 18.048 9.712 18.048 8.624 18.016C8.832 18.336 9.072 18.848 9.168 19.184C10.496 19.184 11.344 19.168 11.888 18.992C12.448 18.8 12.64 18.448 12.64 17.744V14.32H18.864V13.184Z" fill="white"/>
</svg>
