<svg width="121" height="48" viewBox="0 0 121 48" fill="none" xmlns="http://www.w3.org/2000/svg">
<g clip-path="url(#clip0_2487_2487)">
<path d="M12.5053 34.0169C13.5269 32.3367 12.9827 30.1527 11.2899 29.1387C9.59713 28.1248 7.39669 28.6648 6.37512 30.345C5.35354 32.0252 5.89768 34.2092 7.59048 35.2232C9.28329 36.2372 11.4837 35.6971 12.5053 34.0169Z" fill="#FFF1E7"/>
<path d="M9.44118 36.1879C7.21523 36.1879 5.40234 34.3885 5.40234 32.1791C5.40234 29.9698 7.21523 28.1704 9.44118 28.1704C11.6671 28.1704 13.48 29.9698 13.48 32.1791C13.48 34.3931 11.6671 36.1879 9.44118 36.1879ZM9.44118 29.086C7.72009 29.086 6.32026 30.4754 6.32026 32.1837C6.32026 33.892 7.72009 35.2814 9.44118 35.2814C11.1623 35.2814 12.5621 33.892 12.5621 32.1837C12.5621 30.4754 11.1623 29.086 9.44118 29.086Z" fill="#1A4D7A"/>
<path d="M49.0938 33.7456C49.5466 31.8355 48.3535 29.9227 46.4289 29.4733C44.5044 29.0239 42.5772 30.2081 42.1245 32.1183C41.6717 34.0285 42.8648 35.9413 44.7893 36.3906C46.7139 36.84 48.641 35.6558 49.0938 33.7456Z" fill="#FFF1E7"/>
<path d="M45.6072 36.935C43.3813 36.935 41.5684 35.1356 41.5684 32.9263C41.5684 30.7169 43.3813 28.9175 45.6072 28.9175C47.8332 28.9175 49.646 30.7169 49.646 32.9263C49.646 35.1402 47.8332 36.935 45.6072 36.935ZM45.6072 29.8332C43.8861 29.8332 42.4863 31.2226 42.4863 32.9308C42.4863 34.6391 43.8861 36.0285 45.6072 36.0285C47.3283 36.0285 48.7281 34.6391 48.7281 32.9308C48.7281 31.2226 47.3283 29.8332 45.6072 29.8332Z" fill="#1A4D7A"/>
<path d="M44.4138 30.6622L51.4451 28.257C51.4451 28.257 48.4297 24.1435 45.6347 17.397C40.7238 5.55757 29.6353 11.7438 29.6353 11.7438C29.6353 11.7438 18.2899 3.85386 10.7492 14.6137C3.20848 25.3735 1.15234 26.1205 1.15234 26.1205L10.7538 30.9447" fill="#FFB53C"/>
<path d="M10.5469 31.3501L0 26.0476L0.995941 25.6878C1.06479 25.6559 3.18518 24.6173 10.3771 14.354C12.6122 11.1652 15.3935 9.25652 18.6521 8.68254C23.8521 7.76691 28.561 10.5092 29.6625 11.2153C30.7503 10.6687 35.0874 8.73265 39.3879 10.2131C42.3023 11.2153 44.5466 13.575 46.0611 17.2193C48.8057 23.8383 51.789 27.9427 51.8165 27.9837L52.1791 28.4802L44.5603 31.0859L44.262 30.2249L50.7242 28.0156C49.843 26.7127 47.4426 22.95 45.2075 17.5655C43.7985 14.1718 41.7423 11.9897 39.0896 11.0741C34.6239 9.5344 29.9058 12.1127 29.8553 12.1401L29.6029 12.2813L29.3734 12.1173C29.3229 12.0809 24.2468 8.61877 18.8036 9.57995C15.7974 10.1129 13.2134 11.8941 11.1252 14.8733C5.8196 22.4534 3.18977 25.1229 2.04696 26.0567L10.9599 30.5347L10.5469 31.3501Z" fill="#1A4D7A"/>
<path d="M44.413 30.6623C43.9219 40.0554 36.5694 47.5126 27.5738 47.5126C18.67 47.5126 11.3771 40.2058 10.7529 30.9493L15.2094 25.378C15.2094 25.378 20.2672 26.4986 23.2687 23.7062C26.2658 20.9138 28.7028 22.9591 28.7028 22.9591C28.7028 22.9591 31.5117 19.3831 34.5132 22.8452C37.5103 26.3028 42.1366 31.1087 44.413 30.6623Z" fill="#FFF1E7"/>
<path d="M27.5742 47.9636C18.5281 47.9636 10.9369 40.5019 10.2944 30.972C10.2852 30.8581 10.3219 30.7488 10.3907 30.6577L14.8472 25.0865C14.9574 24.9498 15.1318 24.886 15.3062 24.927C15.3567 24.9361 20.1666 25.9565 22.9525 23.3691C25.5089 20.9866 27.7623 21.8613 28.6252 22.3578C29.1209 21.8476 30.2315 20.9092 31.6497 20.8773C32.8201 20.85 33.8757 21.4103 34.8579 22.5446C39.3419 27.724 42.7933 30.5165 44.3216 30.2158C44.4593 30.1885 44.6061 30.2249 44.7117 30.316C44.8173 30.4071 44.8769 30.5438 44.8678 30.685C44.3629 40.3743 36.7671 47.9636 27.5742 47.9636ZM11.226 31.0859C11.9145 40.0509 19.0697 47.0525 27.5788 47.0525C36.1246 47.0525 43.2155 40.101 43.9269 31.136C41.9029 30.972 38.6259 28.2843 34.1648 23.1368C33.3708 22.2211 32.5401 21.7656 31.6727 21.7884C30.1902 21.8248 29.075 23.2233 29.0658 23.237C28.9878 23.3326 28.8776 23.3964 28.7491 23.4101C28.6252 23.4238 28.5013 23.3828 28.4049 23.3053C28.3177 23.237 26.2294 21.5697 23.5812 24.0342C20.8275 26.5988 16.5454 26.075 15.3934 25.8745L11.226 31.0859Z" fill="#1A4D7A"/>
<path d="M24.5769 29.6372V27.8697C24.5769 27.8697 20.9236 27.0361 20.0791 29.4231C20.0791 29.4231 22.7594 28.5895 24.5769 29.6372Z" fill="#1A4D7A"/>
<path d="M24.5774 30.0928C24.4994 30.0928 24.4167 30.0746 24.3479 30.029C22.7324 29.0952 20.2448 29.8468 20.2173 29.8559C20.052 29.906 19.8685 29.8605 19.7491 29.7375C19.6298 29.6145 19.5885 29.4323 19.6482 29.2683C20.6166 26.5305 24.5177 27.3869 24.6829 27.4233C24.8895 27.4689 25.0409 27.6557 25.0409 27.8652V29.6327C25.0409 29.7967 24.9537 29.947 24.8114 30.029C24.7334 30.07 24.6554 30.0928 24.5774 30.0928ZM22.2872 28.6533C22.8792 28.6533 23.5172 28.7262 24.1184 28.9312V28.257C23.4529 28.1659 22.0026 28.0611 21.1168 28.7398C21.461 28.6897 21.8603 28.6533 22.2872 28.6533Z" fill="#1A4D7A"/>
<path d="M29.6211 29.6373V27.8698C29.6211 27.8698 33.2744 27.0362 34.1189 29.4232C34.1189 29.4232 31.4386 28.5896 29.6211 29.6373Z" fill="#1A4D7A"/>
<path d="M29.6211 30.0928C29.543 30.0928 29.465 30.0746 29.3916 30.0336C29.2493 29.9516 29.1621 29.8013 29.1621 29.6373V27.8698C29.1621 27.6557 29.309 27.4735 29.5201 27.4279C29.6853 27.3915 33.5865 26.5351 34.5549 29.2728C34.61 29.4368 34.5732 29.6145 34.4539 29.742C34.3346 29.8696 34.1556 29.9106 33.9858 29.8605C33.9628 29.8514 31.4753 29.0997 29.8551 30.0336C29.7771 30.07 29.6991 30.0928 29.6211 30.0928ZM30.08 28.2524V28.9266C31.1173 28.5713 32.2555 28.6169 33.0816 28.7353C32.1958 28.0566 30.7455 28.1613 30.08 28.2524Z" fill="#1A4D7A"/>
<path d="M29.5979 37.3085H25.0771C24.8247 37.3085 24.6182 37.1035 24.6182 36.853C24.6182 36.6025 24.8247 36.3975 25.0771 36.3975H29.5979C29.8503 36.3975 30.0568 36.6025 30.0568 36.853C30.0568 37.1035 29.8503 37.3085 29.5979 37.3085Z" fill="#1A4D7A"/>
<path d="M28.3501 35.1584C28.2032 35.1584 28.0563 35.0855 27.9691 34.9534C27.8452 34.7666 27.7167 34.6573 27.6249 34.6573C27.4964 34.6573 27.3128 34.8304 27.2256 34.9534C27.0833 35.1584 26.7988 35.213 26.5877 35.0764C26.3765 34.9397 26.3215 34.6573 26.4637 34.4477C26.5142 34.3749 26.9548 33.7462 27.6249 33.7462C27.9141 33.7462 28.3409 33.8692 28.731 34.4477C28.8733 34.6573 28.8136 34.9397 28.6025 35.0809C28.5245 35.1356 28.4373 35.1584 28.3501 35.1584Z" fill="#1A4D7A"/>
<path d="M22.0764 33.2816C20.2268 33.2816 19.1161 31.9241 19.0978 31.9059C18.9417 31.71 18.9739 31.423 19.1712 31.2681C19.3686 31.1132 19.6577 31.1451 19.8138 31.341C19.8918 31.4367 21.5899 33.4501 24.3116 31.5688C24.5181 31.4276 24.8072 31.4777 24.9495 31.6827C25.0964 31.8877 25.0413 32.1746 24.8348 32.3159C23.8021 33.0311 22.8704 33.2816 22.0764 33.2816Z" fill="#1A4D7A"/>
<path d="M32.6917 33.2816C30.8421 33.2816 29.7314 31.9241 29.713 31.9059C29.557 31.71 29.5891 31.423 29.7864 31.2681C29.9838 31.1132 30.2729 31.1451 30.429 31.341C30.507 31.4367 32.2052 33.4501 34.9268 31.5688C35.1333 31.4276 35.4225 31.4777 35.5647 31.6827C35.7116 31.8877 35.6565 32.1746 35.45 32.3159C34.4173 33.0311 33.4857 33.2816 32.6917 33.2816Z" fill="#1A4D7A"/>
<path d="M47.6723 39.1535C49.8041 39.1535 51.5322 36.7448 51.5322 33.7736C51.5322 30.8023 49.8041 28.3937 47.6723 28.3937C45.5406 28.3937 43.8125 30.8023 43.8125 33.7736C43.8125 36.7448 45.5406 39.1535 47.6723 39.1535Z" fill="#FFD1A2"/>
<path d="M47.6723 39.6136C45.2903 39.6136 43.3535 36.9942 43.3535 33.7781C43.3535 30.562 45.2903 27.9427 47.6723 27.9427C50.0543 27.9427 51.9911 30.562 51.9911 33.7781C51.9911 36.9942 50.0543 39.6136 47.6723 39.6136ZM47.6723 28.8492C45.7952 28.8492 44.2714 31.0586 44.2714 33.7736C44.2714 36.4886 45.7952 38.6979 47.6723 38.6979C49.5449 38.6979 51.0732 36.4886 51.0732 33.7736C51.0732 31.0586 49.5449 28.8492 47.6723 28.8492Z" fill="#1A4D7A"/>
<path d="M83.4253 38.6752C85.557 38.6752 87.2851 36.2665 87.2851 33.2953C87.2851 30.3241 85.557 27.9154 83.4253 27.9154C81.2935 27.9154 79.5654 30.3241 79.5654 33.2953C79.5654 36.2665 81.2935 38.6752 83.4253 38.6752Z" fill="#FFD1A2"/>
<path d="M83.4253 39.1307C81.0433 39.1307 79.1064 36.5114 79.1064 33.2953C79.1064 30.0792 81.0433 27.4598 83.4253 27.4598C85.8073 27.4598 87.7441 30.0792 87.7441 33.2953C87.7441 36.5114 85.8073 39.1307 83.4253 39.1307ZM83.4253 28.3664C81.5527 28.3664 80.0244 30.5757 80.0244 33.2907C80.0244 36.0057 81.5481 38.2151 83.4253 38.2151C85.3024 38.2151 86.8261 36.0057 86.8261 33.2907C86.8261 30.5803 85.2978 28.3664 83.4253 28.3664Z" fill="#1A4D7A"/>
<path d="M73.8233 19.0552C73.8233 19.0552 74.4291 23.8565 78.4725 23.5377C78.4725 23.5377 79.8265 28.2798 83.8974 26.5624C83.365 38.2606 75.4388 47.5445 65.7364 47.5445C56.1304 47.5445 48.2684 38.4474 47.5938 26.9132C48.1766 26.6308 54.0146 23.6971 54.0146 19.5153C54.0146 19.5153 59.2697 18.5905 59.4716 14.8824" fill="#FFD1A2"/>
<path d="M65.7409 48C56.0018 48 47.8277 38.7481 47.1392 26.9405C47.1301 26.7583 47.231 26.5852 47.3963 26.5032C47.6487 26.3802 53.5601 23.4876 53.5601 19.5153C53.5601 19.2966 53.7207 19.1053 53.9364 19.0688C53.9869 19.0597 58.8335 18.1578 59.0171 14.8597C59.0309 14.6091 59.2695 14.4178 59.499 14.4315C59.7514 14.4451 59.9442 14.6592 59.9304 14.9098C59.7423 18.3719 55.7172 19.5927 54.4597 19.8888C54.1705 23.7791 49.3973 26.5032 48.0709 27.1865C48.8512 38.37 56.5617 47.089 65.7363 47.089C74.9522 47.089 82.6076 38.4155 83.397 27.223C82.4149 27.5008 81.4969 27.4462 80.6708 27.0499C79.17 26.3392 78.4173 24.7221 78.1465 24.0069C78.1282 24.0069 78.1144 24.0069 78.0961 24.0069C74.8558 24.0069 73.5845 20.8454 73.3642 19.1098C73.3321 18.8593 73.511 18.6315 73.7635 18.5996C74.0159 18.5678 74.2454 18.7454 74.2775 18.996C74.3005 19.1736 74.8833 23.3737 78.4357 23.0821C78.6514 23.0639 78.8533 23.2051 78.913 23.4101C78.9176 23.4329 79.5326 25.501 81.0701 26.2253C81.8366 26.5852 82.727 26.5579 83.7183 26.1388C83.8652 26.0796 84.0304 26.0932 84.1589 26.1843C84.2874 26.2755 84.3608 26.4212 84.3563 26.5807C83.8101 38.5932 75.636 48 65.7409 48Z" fill="#1A4D7A"/>
<path d="M85.1418 20.2623C86.9592 24.6765 83.898 29.3731 83.898 29.3731C79.827 30.8627 78.4731 26.7538 78.4731 26.7538C74.4297 27.0271 73.8238 22.868 73.8238 22.868C69.1792 23.073 66.5493 18.8593 66.5493 18.8593C64.7319 23.1095 59.4768 19.2602 59.4768 19.2602C59.2748 22.4717 54.0198 23.2734 54.0198 23.2734C54.0198 26.895 48.1818 29.4369 47.5989 29.6783C47.5668 29.692 47.553 29.6965 47.553 29.6965C42.2979 29.7056 43.5096 23.8702 43.5096 23.8702C40.4759 18.8547 45.3271 15.6477 45.3271 15.6477C42.7018 7.01987 50.5822 7.22486 50.5822 7.22486C49.9763 0.205023 55.8372 3.01114 55.8372 3.01114C61.0923 -2.40521 68.9726 2.40983 68.9726 2.40983C73.42 0.205023 76.3481 5.06105 76.3481 5.06105C81.0983 3.30268 82.2779 9.02879 82.2779 9.02879C87.9001 11.2381 85.1418 20.2623 85.1418 20.2623Z" fill="#FFF1E7"/>
<path d="M82.2132 30.1566C81.6028 30.1566 81.0291 30.0291 80.4921 29.7694C79.1381 29.118 78.4359 27.8288 78.1697 27.2229C78.1468 27.2229 78.1193 27.2229 78.0963 27.2229C74.7918 27.2229 73.7408 24.3941 73.4654 23.3327C69.8993 23.3144 67.554 20.9046 66.6177 19.7248C66.1404 20.4764 65.4933 20.9684 64.6901 21.1871C62.9002 21.6745 60.8165 20.6313 59.8114 20.0209C59.0862 22.5036 55.6211 23.4147 54.4645 23.6515C54.0927 27.3596 48.4475 29.8195 47.782 30.0974C47.7453 30.1156 47.7178 30.1247 47.7178 30.1247C47.6627 30.1429 47.5985 30.1566 47.5434 30.1521C45.9737 30.1521 44.7759 29.6646 43.9819 28.6943C42.6463 27.0726 42.9217 24.6355 43.0318 23.9567C40.4157 19.4424 43.7845 16.2855 44.8034 15.4746C44.0232 12.7186 44.2205 10.5457 45.4 9.01055C46.7815 7.21573 49.0855 6.85131 50.0998 6.78297C49.9988 4.69206 50.4899 3.26167 51.5639 2.53281C53.0004 1.5534 54.9831 2.17293 55.7404 2.46903C60.6742 -2.29589 67.6733 1.16619 68.9997 1.89505C72.956 0.104792 75.774 3.45299 76.5404 4.51895C77.8117 4.12263 78.9637 4.20008 79.9643 4.75128C81.7634 5.73979 82.484 7.96282 82.6767 8.70079C85.022 9.7303 86.2658 12.0672 86.2841 15.4746C86.2979 17.6931 85.7885 19.6792 85.6324 20.2441C87.3948 24.7767 84.4208 29.4278 84.2923 29.6282C84.2372 29.7102 84.1591 29.774 84.0674 29.8104C83.4156 30.0382 82.796 30.1566 82.2132 30.1566ZM83.8975 29.3731H83.9021H83.8975ZM50.5496 7.68038C50.2604 7.68038 47.5342 7.73049 46.1252 9.57086C45.0971 10.9147 44.9778 12.9145 45.7718 15.5202C45.8315 15.7115 45.7534 15.9211 45.5882 16.0304C45.4046 16.1534 41.1409 19.0688 43.9084 23.6424C43.9681 23.7381 43.9864 23.8565 43.9635 23.9704C43.9589 23.9977 43.4403 26.608 44.6932 28.1295C45.2899 28.8538 46.2216 29.2319 47.4608 29.2455C48.1813 28.9358 53.5603 26.5123 53.5603 23.2734C53.5603 23.0502 53.7256 22.8589 53.9505 22.8225C54.0009 22.8133 58.843 22.0389 59.0174 19.2328C59.0265 19.0643 59.1275 18.9185 59.2836 18.8502C59.435 18.7773 59.614 18.7955 59.7517 18.8957C59.7792 18.9139 62.4596 20.85 64.4468 20.3079C65.1995 20.1029 65.7503 19.5699 66.1312 18.6816C66.2001 18.5267 66.3469 18.4174 66.5168 18.4037C66.6912 18.3901 66.8518 18.4721 66.9436 18.6178C66.9665 18.6588 69.4816 22.5992 73.8096 22.417C74.0437 22.4079 74.2502 22.5765 74.2824 22.8088C74.3053 22.9591 74.8882 26.5396 78.4451 26.3028C78.6608 26.2891 78.849 26.4166 78.9132 26.6171C78.9178 26.6307 79.4869 28.2798 80.9005 28.9585C81.6762 29.3275 82.5849 29.3458 83.5946 29.0041C84.049 28.2388 86.2658 24.1845 84.7191 20.44C84.6778 20.3443 84.6732 20.235 84.7053 20.1348C84.7328 20.0482 87.2755 11.4841 82.1122 9.45698C81.9699 9.40232 81.8644 9.27477 81.8322 9.12444C81.8276 9.09711 81.2723 6.51421 79.5099 5.54847C78.67 5.08837 77.6603 5.07015 76.5129 5.4938C76.3064 5.57124 76.0723 5.48925 75.9576 5.30248C75.8474 5.12026 73.1854 0.833652 69.1787 2.82435C69.0364 2.89268 68.8712 2.88813 68.7335 2.80613C68.6555 2.76058 61.101 -1.74925 56.1672 3.33455C56.0295 3.47577 55.8184 3.51221 55.6394 3.43022C55.6165 3.42111 53.3997 2.38248 52.0733 3.29356C51.2151 3.8812 50.8662 5.19315 51.0407 7.19296C51.0498 7.32051 51.0085 7.44806 50.9167 7.54372C50.8295 7.63938 50.7148 7.69861 50.5725 7.68494C50.5725 7.68038 50.5633 7.68038 50.5496 7.68038Z" fill="#1A4D7A"/>
<path d="M69.3762 36.9122C69.289 36.9122 69.1972 36.8849 69.1192 36.8348L68.1186 36.156L65.8973 36.8895C65.8009 36.9213 65.6999 36.9213 65.6081 36.8895L63.1711 36.0831C63.1298 36.0695 63.0885 36.0467 63.0517 36.0239L61.8447 35.1675C61.6381 35.0217 61.5922 34.7348 61.7391 34.5298C61.886 34.3248 62.1751 34.2792 62.3771 34.425L63.5291 35.2404L65.755 35.9784L68.0498 35.2176C68.1875 35.1721 68.3344 35.1949 68.4537 35.2723L69.6424 36.0786C69.8535 36.2198 69.904 36.5022 69.7617 36.7118C69.6653 36.8439 69.5231 36.9122 69.3762 36.9122Z" fill="#1A4D7A"/>
<path d="M61.289 27.4234C61.289 27.4234 55.8457 25.7288 54.501 29.4779C54.501 29.4779 56.8279 27.6648 61.289 27.4234Z" fill="#1A4D7A"/>
<path d="M68.3164 27.4234C68.3164 27.4234 73.7597 25.7288 75.1044 29.4779C75.1044 29.4779 72.7775 27.6648 68.3164 27.4234Z" fill="#1A4D7A"/>
<path d="M62.4686 36.9123C62.3493 36.9123 62.23 36.8667 62.1382 36.771C61.9638 36.5888 61.9684 36.3018 62.152 36.1287L62.9964 35.3224C63.18 35.1493 63.4692 35.1539 63.6436 35.3361C63.818 35.5183 63.8134 35.8053 63.6298 35.9784L62.7853 36.7847C62.6981 36.8713 62.5834 36.9123 62.4686 36.9123Z" fill="#1A4D7A"/>
<path d="M68.188 36.106C68.0595 36.106 67.931 36.0513 67.8438 35.9511C67.6786 35.7598 67.697 35.4728 67.8897 35.3088L68.8765 34.4524C69.0692 34.2884 69.3584 34.3066 69.5236 34.4979C69.6888 34.6892 69.6705 34.9762 69.4777 35.1402L68.491 35.9966C68.4037 36.0695 68.2982 36.106 68.188 36.106Z" fill="#1A4D7A"/>
<path d="M62.1023 31.7965C62.1023 32.6256 60.9732 33.2998 59.578 33.2998C58.1828 33.2998 57.0537 32.6256 57.0537 31.7965C57.0537 30.9674 58.1828 30.2932 59.578 30.2932C60.9732 30.2932 62.1023 30.9674 62.1023 31.7965Z" fill="white"/>
<path d="M59.578 33.7553C57.9028 33.7553 56.5947 32.8944 56.5947 31.7965C56.5947 30.6987 57.9073 29.8377 59.578 29.8377C61.2486 29.8377 62.5612 30.6987 62.5612 31.7965C62.5612 32.8944 61.2532 33.7553 59.578 33.7553ZM59.578 30.7488C58.3617 30.7488 57.5126 31.3 57.5126 31.7965C57.5126 32.2931 58.3617 32.8443 59.578 32.8443C60.7988 32.8443 61.6433 32.2931 61.6433 31.7965C61.6433 31.3 60.7942 30.7488 59.578 30.7488Z" fill="#1A4D7A"/>
<path d="M61.0916 31.7966C61.0916 32.2931 60.4124 32.6985 59.5771 32.6985C58.7418 32.6985 58.0625 32.2931 58.0625 31.7966C58.0625 31.3 58.7418 30.8946 59.5771 30.8946C60.4124 30.8946 61.0916 31.3 61.0916 31.7966Z" fill="#1A4D7A"/>
<path d="M74.2273 31.7965C74.2273 32.6256 73.0982 33.2998 71.703 33.2998C70.3077 33.2998 69.1787 32.6256 69.1787 31.7965C69.1787 30.9674 70.3077 30.2932 71.703 30.2932C73.0982 30.2932 74.2273 30.9674 74.2273 31.7965Z" fill="white"/>
<path d="M71.703 33.7553C70.0278 33.7553 68.7197 32.8944 68.7197 31.7965C68.7197 30.6987 70.0323 29.8377 71.703 29.8377C73.3736 29.8377 74.6862 30.6987 74.6862 31.7965C74.6862 32.8944 73.3782 33.7553 71.703 33.7553ZM71.703 30.7488C70.4867 30.7488 69.6376 31.3 69.6376 31.7965C69.6376 32.2931 70.4867 32.8443 71.703 32.8443C72.9238 32.8443 73.7683 32.2931 73.7683 31.7965C73.7683 31.3 72.9192 30.7488 71.703 30.7488Z" fill="#1A4D7A"/>
<path d="M73.2176 31.7966C73.2176 32.2931 72.5383 32.6985 71.703 32.6985C70.8677 32.6985 70.1885 32.2931 70.1885 31.7966C70.1885 31.3 70.8677 30.8946 71.703 30.8946C72.5383 30.8946 73.2176 31.3 73.2176 31.7966Z" fill="#1A4D7A"/>
<path d="M59.362 35.8599C57.517 35.8599 56.0713 34.9716 56.0713 33.8328C56.0713 32.694 57.517 31.8057 59.362 31.8057C61.207 31.8057 62.6528 32.694 62.6528 33.8328C62.6528 34.9716 61.207 35.8599 59.362 35.8599ZM59.362 32.7213C58.0035 32.7213 56.9892 33.3089 56.9892 33.8374C56.9892 34.3658 58.0035 34.9534 59.362 34.9534C60.7205 34.9534 61.7348 34.3658 61.7348 33.8374C61.7348 33.3089 60.7205 32.7213 59.362 32.7213Z" fill="white"/>
<path d="M71.5147 35.8599C69.6972 35.8599 68.2744 34.9716 68.2744 33.8328C68.2744 32.694 69.6972 31.8057 71.5147 31.8057C73.3322 31.8057 74.7549 32.694 74.7549 33.8328C74.7549 34.9716 73.3322 35.8599 71.5147 35.8599ZM71.5147 32.7213C70.1837 32.7213 69.1923 33.3089 69.1923 33.8374C69.1923 34.3658 70.1837 34.9534 71.5147 34.9534C72.8457 34.9534 73.837 34.3658 73.837 33.8374C73.837 33.3089 72.8411 32.7213 71.5147 32.7213Z" fill="white"/>
<path d="M68.5045 34.4159C68.4127 34.4159 68.3163 34.3886 68.2383 34.3293C65.3376 32.2475 62.4646 34.2428 62.3406 34.3293C62.1341 34.4751 61.8495 34.4296 61.6981 34.2246C61.5512 34.0196 61.5971 33.7371 61.8037 33.5914C61.8404 33.564 65.3285 31.1178 68.7752 33.5914C68.9818 33.7371 69.0277 34.0241 68.8762 34.2291C68.789 34.3521 68.6467 34.4159 68.5045 34.4159Z" fill="white"/>
<path d="M54.2811 34.5298C51.3621 34.5298 45.8271 33.851 41.6919 29.2637C41.5221 29.077 41.5404 28.79 41.7286 28.6214C41.9168 28.4529 42.2059 28.4711 42.3757 28.6579C47.7914 34.6664 56.0481 33.523 56.1307 33.5139C56.3786 33.4729 56.6126 33.646 56.6539 33.8966C56.6907 34.1471 56.5208 34.3749 56.2684 34.4159C56.1675 34.4295 55.4239 34.5298 54.2811 34.5298Z" fill="white"/>
<path d="M76.339 34.5298C75.1962 34.5298 74.4527 34.425 74.3563 34.4113C74.1039 34.3749 73.9341 34.1426 73.9708 33.892C74.0075 33.6415 74.2416 33.4684 74.494 33.5094C74.5766 33.523 82.8333 34.6619 88.249 28.6534C88.4188 28.4666 88.708 28.4484 88.8962 28.6169C89.0843 28.7855 89.1027 29.0724 88.9329 29.2592C84.7977 33.851 79.2626 34.5298 76.339 34.5298Z" fill="white"/>
<path d="M66.4162 34.3293C66.2693 34.3293 66.1224 34.2564 66.0352 34.1243C65.8929 33.9102 65.7461 33.7918 65.6359 33.7918C65.4569 33.7918 65.232 34.0423 65.177 34.1243C65.0347 34.3339 64.7501 34.3885 64.539 34.2519C64.3279 34.1107 64.2728 33.8282 64.4105 33.6187C64.461 33.5412 64.9291 32.8762 65.6359 32.8762C65.9388 32.8762 66.3886 33.0037 66.8017 33.6187C66.944 33.8282 66.8843 34.1107 66.6732 34.2519C66.5906 34.3066 66.5034 34.3293 66.4162 34.3293Z" fill="#1A4D7A"/>
<path d="M85.6516 36.0968L80.5525 39.3949C80.5525 39.3949 74.4254 10.8418 94.6931 9.20639C94.6931 9.20639 103.79 5.78075 113.52 12.2175C123.25 18.6542 120.005 38.1421 120.005 38.1421L114.511 36.5341" fill="#FFB53C"/>
<path d="M80.2404 40.142L80.1027 39.4905C80.0936 39.4495 79.2491 35.4454 79.2261 30.4162C79.2032 25.7515 79.91 19.2146 83.3843 14.5817C85.982 11.1197 89.7546 9.16084 94.6013 8.75542C95.4549 8.46387 104.4 5.63498 113.777 11.8394C117.875 14.5544 120.331 19.989 120.872 27.5646C121.276 33.2315 120.468 38.1695 120.464 38.2196L120.381 38.7298L114.392 36.976L114.653 36.1013L119.638 37.5636C119.826 36.1742 120.285 32.129 119.963 27.6147C119.601 22.5445 118.141 15.8208 113.276 12.6002C103.872 6.37751 94.9547 9.60272 94.8675 9.6346L94.7435 9.66194C90.1448 10.0355 86.5741 11.8713 84.1324 15.1284C78.501 22.6356 80.3552 35.5866 80.8921 38.6432L85.4175 35.7141L85.9177 36.4749L80.2404 40.142Z" fill="#1A4D7A"/>
<path d="M85.9804 35.4752C87.5153 34.3618 87.8502 32.2241 86.7284 30.7006C85.6065 29.1771 83.4528 28.8448 81.9179 29.9582C80.383 31.0717 80.0481 33.2093 81.1699 34.7328C82.2917 36.2563 84.4455 36.5887 85.9804 35.4752Z" fill="#FFB892"/>
<path d="M83.9441 36.5888C81.7962 36.5888 80.043 34.8532 80.043 32.7167C80.043 30.5848 81.7916 28.8447 83.9441 28.8447C86.0966 28.8447 87.8453 30.5803 87.8453 32.7167C87.8453 34.8532 86.0966 36.5888 83.9441 36.5888ZM83.9441 29.7557C82.301 29.7557 80.9609 31.0814 80.9609 32.7167C80.9609 34.3521 82.2965 35.6777 83.9441 35.6777C85.5918 35.6777 86.9274 34.3521 86.9274 32.7167C86.9274 31.0814 85.5872 29.7557 83.9441 29.7557Z" fill="#1A4D7A"/>
<path d="M118.873 35.2225C120.271 33.9428 120.358 31.7812 119.069 30.3946C117.779 29.0079 115.602 28.9212 114.204 30.2009C112.807 31.4805 112.72 33.6421 114.009 35.0288C115.299 36.4154 117.476 36.5022 118.873 35.2225Z" fill="#FFB892"/>
<path d="M116.54 36.5887C114.392 36.5887 112.639 34.8531 112.639 32.7167C112.639 30.5848 114.387 28.8446 116.54 28.8446C118.692 28.8446 120.441 30.5802 120.441 32.7167C120.436 34.8531 118.688 36.5887 116.54 36.5887ZM116.54 29.7557C114.897 29.7557 113.557 31.0813 113.557 32.7167C113.557 34.3521 114.892 35.6777 116.54 35.6777C118.187 35.6777 119.523 34.3521 119.523 32.7167C119.523 31.0813 118.183 29.7557 116.54 29.7557Z" fill="#1A4D7A"/>
<path d="M116.374 29.4596C115.901 38.4883 108.833 45.6539 100.186 45.6539C91.6268 45.6539 84.6139 38.6296 84.0127 29.7284C84.5313 29.5143 94.4219 23.3007 94.6009 20.4399C94.6009 20.4445 112.744 30.7852 116.374 29.4596Z" fill="#FFB892"/>
<path d="M100.187 46.1095C91.4804 46.1095 84.1737 38.9302 83.5587 29.7603C83.545 29.5644 83.6597 29.3867 83.8387 29.3093C84.6235 28.9494 93.9909 22.8908 94.1469 20.4126C94.1561 20.2578 94.2479 20.1165 94.3856 20.0391C94.5233 19.9662 94.6931 19.9662 94.8308 20.0436C94.8767 20.071 99.4158 22.6493 104.331 25.0363C112.854 29.1681 115.433 29.3093 116.214 29.0269C116.356 28.9767 116.521 28.995 116.645 29.0861C116.769 29.1772 116.838 29.323 116.833 29.4778C116.342 38.8072 109.031 46.1095 100.187 46.1095ZM84.495 29.9835C85.211 38.5385 92.0495 45.1984 100.187 45.1984C108.361 45.1984 115.149 38.5749 115.874 30.0108C111.482 30.3069 98.1077 22.9409 94.8996 21.1324C93.688 24.1799 86.1473 29.0177 84.495 29.9835Z" fill="#1A4D7A"/>
<path d="M107.755 31.6188C107.755 32.3614 106.745 32.9581 105.502 32.9581C104.258 32.9581 103.248 32.3568 103.248 31.6188C103.248 30.8763 104.258 30.2796 105.502 30.2796C106.745 30.275 107.755 30.8763 107.755 31.6188Z" fill="white"/>
<path d="M105.502 33.1859C104.111 33.1859 103.019 32.4981 103.019 31.6189C103.019 30.7397 104.111 30.0518 105.502 30.0518C106.892 30.0518 107.984 30.7397 107.984 31.6189C107.984 32.4981 106.892 33.1859 105.502 33.1859ZM105.502 30.5028C104.405 30.5028 103.478 31.013 103.478 31.6143C103.478 32.2156 104.405 32.7258 105.502 32.7258C106.598 32.7258 107.526 32.2156 107.526 31.6143C107.526 31.013 106.598 30.5028 105.502 30.5028Z" fill="#1A4D7A"/>
<path d="M96.9464 31.6189C96.9464 32.3614 95.9367 32.9582 94.6929 32.9582C93.4492 32.9582 92.4395 32.3569 92.4395 31.6189C92.4395 30.8764 93.4492 30.2796 94.6929 30.2796C95.9367 30.2796 96.9464 30.8764 96.9464 31.6189Z" fill="white"/>
<path d="M94.6929 33.1859C93.3023 33.1859 92.21 32.4981 92.21 31.6189C92.21 30.7397 93.3023 30.0518 94.6929 30.0518C96.0836 30.0518 97.1759 30.7397 97.1759 31.6189C97.1759 32.4981 96.0836 33.1859 94.6929 33.1859ZM94.6929 30.5028C93.596 30.5028 92.6689 31.013 92.6689 31.6143C92.6689 32.2156 93.596 32.7258 94.6929 32.7258C95.7898 32.7258 96.7169 32.2156 96.7169 31.6143C96.7169 31.013 95.7898 30.5028 94.6929 30.5028Z" fill="#1A4D7A"/>
<path d="M94.6931 32.4252C95.4383 32.4252 96.0424 32.0642 96.0424 31.6189C96.0424 31.1736 95.4383 30.8126 94.6931 30.8126C93.9479 30.8126 93.3438 31.1736 93.3438 31.6189C93.3438 32.0642 93.9479 32.4252 94.6931 32.4252Z" fill="#1A4D7A"/>
<path d="M105.502 32.4252C106.247 32.4252 106.851 32.0642 106.851 31.6189C106.851 31.1736 106.247 30.8126 105.502 30.8126C104.756 30.8126 104.152 31.1736 104.152 31.6189C104.152 32.0642 104.756 32.4252 105.502 32.4252Z" fill="#1A4D7A"/>
<path d="M102.533 35.0991L100.55 36.1696L98.0303 35.2768L99.3383 34.6937L100.279 35.1401L101.147 34.3338L102.533 35.0991Z" fill="#FF003F"/>
<path d="M100.55 36.3428C100.531 36.3428 100.513 36.3382 100.49 36.3336L97.9657 35.4408C97.9014 35.418 97.8555 35.3542 97.8509 35.2859C97.8463 35.2176 97.8877 35.1538 97.9519 35.1219L99.2599 34.5388C99.3058 34.516 99.3609 34.5206 99.4022 34.5388L100.238 34.9351L101.018 34.2108C101.073 34.1607 101.155 34.1516 101.22 34.1881L102.606 34.9488C102.661 34.9807 102.693 35.0354 102.693 35.0991C102.693 35.1629 102.656 35.2176 102.601 35.2495L100.618 36.32C100.609 36.3336 100.577 36.3428 100.55 36.3428ZM98.4889 35.2586L100.536 35.9829L102.174 35.0946L101.174 34.5434L100.398 35.2631C100.348 35.3132 100.27 35.3223 100.205 35.2905L99.3334 34.8805L98.4889 35.2586Z" fill="#1A4D7A"/>
<path d="M97.7687 29.5507V27.8516C97.7687 27.8516 94.2531 27.0498 93.4453 29.3412C93.4453 29.3458 96.0247 28.544 97.7687 29.5507Z" fill="#1A4D7A"/>
<path d="M97.7682 30.0063C97.6902 30.0063 97.6076 29.988 97.5387 29.9425C95.9829 29.0451 93.6054 29.7694 93.5825 29.7785C93.4173 29.8286 93.2383 29.7831 93.1144 29.6601C92.995 29.5371 92.9537 29.3548 93.0134 29.1909C93.9497 26.5442 97.7131 27.3687 97.8738 27.4051C98.0803 27.4507 98.2318 27.6375 98.2318 27.847V29.5462C98.2318 29.7102 98.1446 29.8605 98.0023 29.9425C97.9289 29.988 97.8508 30.0063 97.7682 30.0063ZM95.5698 28.5895C96.1297 28.5895 96.7356 28.6579 97.3139 28.8492V28.2388C96.6805 28.1522 95.3541 28.0611 94.5142 28.6624C94.8263 28.6169 95.1889 28.5895 95.5698 28.5895Z" fill="#1A4D7A"/>
<path d="M102.257 29.5507V27.8515C102.257 27.8515 105.772 27.0498 106.58 29.3411C106.58 29.3457 104.005 28.5439 102.257 29.5507Z" fill="#1A4D7A"/>
<path d="M102.257 30.0062C102.179 30.0062 102.101 29.988 102.027 29.947C101.885 29.865 101.798 29.7147 101.798 29.5507V27.8515C101.798 27.6374 101.945 27.4552 102.156 27.4097C102.316 27.3732 106.08 26.5487 107.016 29.1954C107.071 29.3594 107.035 29.537 106.915 29.66C106.796 29.783 106.617 29.8286 106.447 29.7785C106.424 29.7693 104.038 29.0496 102.491 29.9425C102.417 29.988 102.335 30.0062 102.257 30.0062ZM102.716 28.2387V28.8492C103.68 28.5212 104.731 28.5576 105.515 28.6624C104.676 28.0611 103.345 28.1522 102.716 28.2387Z" fill="#1A4D7A"/>
<path d="M83.9812 34.3795L79.8506 41.4767H88.1119L83.9812 34.3795Z" fill="white"/>
<path d="M88.41 41.6498H79.5566L83.9856 34.0378L88.41 41.6498ZM80.1487 41.3082H87.8087L83.9764 34.7211L80.1487 41.3082Z" fill="#1A4D7A"/>
<path d="M116.576 34.3795L112.445 41.4767H120.702L116.576 34.3795Z" fill="white"/>
<path d="M121.001 41.6498H112.147L116.576 34.0378L121.001 41.6498ZM112.744 41.3082H120.404L116.576 34.7211L112.744 41.3082Z" fill="#1A4D7A"/>
<path d="M100.228 34.056C99.5491 34.056 99.1222 33.3225 99.0763 33.2405C98.9524 33.0219 99.035 32.744 99.2553 32.621C99.4756 32.498 99.7556 32.58 99.8795 32.7987C99.9851 32.9809 100.164 33.1449 100.228 33.1449C100.247 33.1449 100.366 33.0811 100.522 32.8032C100.646 32.5846 100.921 32.5026 101.146 32.6256C101.367 32.7486 101.449 33.0264 101.325 33.2451C101.027 33.7826 100.655 34.056 100.228 34.056Z" fill="#1A4D7A"/>
</g>
<defs>
<clipPath id="clip0_2487_2487">
<rect width="121" height="48" fill="white"/>
</clipPath>
</defs>
</svg>
