<svg width="18" height="20" viewBox="0 0 18 20" fill="none" xmlns="http://www.w3.org/2000/svg">
<g clip-path="url(#clip0_2402_2006)">
<path d="M15.3025 15.7894C15.1908 15.7894 15.0756 15.7526 14.9813 15.6751C14.7544 15.487 14.7125 15.1404 14.887 14.9007C16.9084 12.1496 17.0062 9.23622 15.1908 5.73281C15.0511 5.4636 15.1454 5.12801 15.4002 4.9805C15.6516 4.83299 15.9728 4.93256 16.1124 5.20177C18.1234 9.08502 17.9942 12.4778 15.7179 15.5792C15.6132 15.7157 15.4596 15.7894 15.3025 15.7894Z" fill="white"/>
<path d="M12.5612 14.0351C12.4409 14.0351 12.317 13.9899 12.2179 13.8996C11.995 13.6962 11.9702 13.3423 12.1578 13.1051C13.7928 11.0721 13.7928 9.26489 12.1578 7.25063C11.9666 7.01344 11.9914 6.65953 12.2144 6.45246C12.4374 6.24915 12.7736 6.2755 12.9647 6.5127C14.9254 8.93357 14.9254 11.3959 12.9647 13.8356C12.8585 13.9673 12.7099 14.0351 12.5612 14.0351Z" fill="white"/>
<path d="M5.60701 15.0209H2.61344C1.17308 15.0209 0 13.7963 0 12.2927V7.71044C0 6.20679 1.17308 4.98218 2.61344 4.98218H5.60701C5.8535 4.98218 6.05248 5.1899 6.05248 5.44722V14.5559C6.05248 14.8101 5.8535 15.0209 5.60701 15.0209ZM2.61344 5.90917C1.6631 5.90917 0.890944 6.71524 0.890944 7.70734V12.2896C0.890944 13.2817 1.6631 14.0877 2.61344 14.0877H5.16154V5.90917H2.61344Z" fill="white"/>
<path d="M10.3791 20C10.2633 20 10.1504 19.9535 10.0643 19.8636L5.2918 14.8845C5.20865 14.7977 5.16113 14.6799 5.16113 14.5559V5.44413C5.16113 5.32012 5.20865 5.20231 5.2918 5.1155L10.0643 0.136428C10.192 0.00311561 10.385 -0.0371882 10.5484 0.0372188C10.7147 0.108526 10.8246 0.279042 10.8246 0.46816V19.5381C10.8246 19.7272 10.7147 19.8946 10.5484 19.969C10.4949 19.9876 10.4355 20 10.3791 20ZM6.05208 14.3637L9.93362 18.4127V1.58737L6.05208 5.63635V14.3637Z" fill="white"/>
<path d="M10.139 0.701782L5.6709 5.61406V14.7369L10.139 19.2983V0.701782Z" fill="white"/>
<path d="M5.32752 14.3859V5.61401H2.40608C0.172038 5.61401 0.515737 6.66665 0.343887 11.2281C0.206408 14.8772 3.60903 14.8538 5.32752 14.3859Z" fill="white"/>
</g>
<defs>
<clipPath id="clip0_2402_2006">
<rect width="17.8723" height="20" fill="white"/>
</clipPath>
</defs>
</svg>
