<svg width="22" height="24" viewBox="0 0 22 24" fill="none"
  xmlns="http://www.w3.org/2000/svg">
  <g clip-path="url(#clip0)">
    <path d="M18.3627 18.9474C18.2286 18.9474 18.0904 18.9031 17.9773 18.8102C17.7049 18.5845 17.6547 18.1685 17.8641 17.8809C20.2898 14.5795 20.4071 11.0835 18.2286 6.87943C18.0611 6.55637 18.1742 6.15367 18.48 5.97665C18.7816 5.79964 19.1671 5.91912 19.3346 6.24217C21.7478 10.9021 21.5927 14.9734 18.8612 18.6951C18.7356 18.8589 18.5512 18.9474 18.3627 18.9474Z" fill="#1E5285"/>
    <path d="M15.0739 16.8421C14.9295 16.8421 14.7808 16.7879 14.6619 16.6795C14.3943 16.4355 14.3646 16.0108 14.5897 15.7262C16.5518 13.2865 16.5518 11.1179 14.5897 8.70075C14.3604 8.41612 14.3901 7.99143 14.6577 7.74294C14.9252 7.49897 15.3287 7.5306 15.558 7.81523C17.9108 10.7203 17.9108 13.675 15.558 16.6027C15.4306 16.7608 15.2522 16.8421 15.0739 16.8421Z" fill="#1E5285"/>
    <path d="M6.72841 18.0251H3.13612C1.40769 18.0251 0 16.5556 0 14.7512V9.2525C0 7.44813 1.40769 5.97859 3.13612 5.97859H6.72841C7.0242 5.97859 7.26298 6.22786 7.26298 6.53664V17.467C7.26298 17.7721 7.0242 18.0251 6.72841 18.0251ZM3.13612 7.09098C1.99571 7.09098 1.06913 8.05827 1.06913 9.24878V14.7475C1.06913 15.938 1.99571 16.9053 3.13612 16.9053H6.19384V7.09098H3.13612Z" fill="#1E5285"/>
    <path d="M12.4554 24C12.3164 24 12.181 23.9442 12.0776 23.8363L6.35065 17.8614C6.25087 17.7572 6.19385 17.6159 6.19385 17.4671V6.53294C6.19385 6.38412 6.25087 6.24275 6.35065 6.13858L12.0776 0.163696C12.2309 0.00372043 12.4625 -0.0446442 12.6585 0.0446443C12.8581 0.130212 12.99 0.334832 12.99 0.561773V23.4457C12.99 23.6726 12.8581 23.8735 12.6585 23.9628C12.5944 23.9851 12.5231 24 12.4554 24ZM7.26298 17.2364L11.9208 22.0952V1.90482L7.26298 6.7636V17.2364Z" fill="#1E5285"/>
    <path d="M12.1669 0.842117L6.80518 6.73685V17.6842L12.1669 23.1579V0.842117Z" fill="#1E5285"/>
    <path d="M6.39293 17.2631V6.73683H2.8872C0.206348 6.73683 0.618786 7.99999 0.412567 13.4737C0.247591 17.8526 4.33073 17.8246 6.39293 17.2631Z" fill="#1E5285"/>
  </g>
  <defs>
    <clipPath id="clip0">
      <rect width="21.4468" height="24" fill="white"/>
    </clipPath>
  </defs>
</svg>
